<?xml version="1.0" encoding="UTF-8"?>
<svg version="1.1" xmlns="http://www.w3.org/2000/svg" width="512" height="512">
<path d="M0 0 C10.23 0 20.46 0 31 0 C31.66 3.3 32.32 6.6 33 10 C34.52394933 13.00655305 34.52394933 13.00655305 36.5625 15.4375 C37.27277344 16.3553125 37.98304688 17.273125 38.71484375 18.21875 C40.23232057 20.06566196 41.76616982 21.89924822 43.31640625 23.71875 C55.80399549 38.42494647 59.30258271 52.14479288 58 71 C56.24394474 84.01546839 49.80452043 93.58312258 41.22680664 103.14208984 C40.72528076 103.70105957 40.22375488 104.2600293 39.70703125 104.8359375 C39.2581958 105.32626465 38.80936035 105.8165918 38.34692383 106.32177734 C36.68439483 108.39323363 35.36655863 110.72240228 34 113 C116.17 113.495 116.17 113.495 200 114 C200 209.64512085 200 209.64512085 192.3125 233.3125 C191.9714624 234.38733643 191.6304248 235.46217285 191.27905273 236.56958008 C188.02974611 246.48118183 183.95834282 255.83028549 179 265 C178.64325195 265.66 178.28650391 266.32 177.91894531 267 C173.03771494 275.86034864 167.24239679 283.89191304 161.09765625 291.91015625 C157.99664937 295.9693558 155.04943106 300.12502562 152.125 304.3125 C146.77377169 311.95660794 141.26910349 319.47906537 135.71484375 326.9765625 C130.78993341 333.63632559 125.898233 340.32059137 121 347 C148.72 347.33 176.44 347.66 205 348 C205.0928125 359.8490625 205.0928125 359.8490625 205.1875 371.9375 C205.21481201 374.4137085 205.24212402 376.88991699 205.27026367 379.44116211 C205.27903463 381.42821771 205.28667712 383.41527875 205.29296875 385.40234375 C205.3159906 386.92027527 205.3159906 386.92027527 205.33947754 388.46887207 C205.34326349 398.84617379 202.77999687 406.18524279 196 414 C195.42378906 414.69351562 194.84757812 415.38703125 194.25390625 416.1015625 C188.46139683 422.53233179 179.46972052 427.64347569 170.64181006 428.12995183 C169.2324163 428.1334478 169.2324163 428.1334478 167.79454994 428.13701439 C166.70977446 428.14208893 165.62499898 428.14716347 164.50735152 428.15239179 C163.31098173 428.15288955 162.11461194 428.15338731 160.88198853 428.15390015 C159.61452927 428.1582824 158.34707001 428.16266465 157.0412029 428.1671797 C153.5157888 428.17914915 149.99038839 428.18479455 146.46495795 428.18936086 C142.66512641 428.19531583 138.86531123 428.20692622 135.06549072 428.21765137 C125.88306619 428.24218209 116.70063624 428.25680573 107.51818901 428.26971143 C104.92378346 428.27342359 102.32937845 428.27739683 99.73497343 428.2814641 C83.61929387 428.30670643 67.50361345 428.32875666 51.38791847 428.34119225 C47.65428286 428.3441219 43.92064727 428.34708356 40.18701172 428.35009766 C39.25904645 428.35084371 38.33108118 428.35158976 37.37499575 428.35235842 C22.35570331 428.36500134 7.33652954 428.39820915 -7.68270747 428.43989949 C-23.10866529 428.48236697 -38.53456245 428.50589304 -53.96057856 428.51111281 C-62.61915904 428.51452202 -71.27755427 428.52621886 -79.93607712 428.55921555 C-87.31344159 428.58728379 -94.69058284 428.59818593 -102.06799655 428.58702008 C-105.8287012 428.58185017 -109.58893891 428.58461023 -113.34957504 428.60948563 C-117.43742085 428.63629809 -121.52424915 428.62386093 -125.6121521 428.60800171 C-126.78621467 428.6218838 -127.96027724 428.63576588 -129.16991746 428.65006864 C-141.23128519 428.53528111 -151.19712237 424.89920328 -159.84375 416.37890625 C-172.37155108 402.55747354 -171.40289483 387.41618832 -171.1875 369.75 C-171.125625 362.5725 -171.06375 355.395 -171 348 C-143.28 347.67 -115.56 347.34 -87 347 C-95.3374986 335.32267964 -95.3374986 335.32267964 -103.8125 323.75 C-109.51792578 316.03208938 -115.16444127 308.27431098 -120.765625 300.48046875 C-122.96335627 297.42546167 -125.18411656 294.38908119 -127.421875 291.36328125 C-145 267.50617764 -145 267.50617764 -145 262 C-145.7528125 261.97421875 -146.505625 261.9484375 -147.28125 261.921875 C-170.60053813 260.67667029 -188.47259092 252.49037718 -204.3046875 235.53125 C-231.0694518 204.42352395 -225 148.85489995 -225 114 C-171.87 114 -118.74 114 -64 114 C-63.67 111.36 -63.34 108.72 -63 106 C-59.70182637 96.60901706 -53.48903399 89.12849622 -47.26269531 81.54638672 C-45.59146808 79.49968268 -43.97328859 77.41652725 -42.375 75.3125 C-41.92898437 74.73113281 -41.48296875 74.14976563 -41.0234375 73.55078125 C-38.64372698 69.94488401 -38.80350886 66.37456835 -38.75 62.1875 C-38.72421875 60.98480469 -38.6984375 59.78210938 -38.671875 58.54296875 C-39.19270761 52.91921664 -41.78788905 49.00672077 -45.1875 44.625 C-45.71730469 43.93664062 -46.24710938 43.24828125 -46.79296875 42.5390625 C-47.19128906 42.03117187 -47.58960938 41.52328125 -48 41 C-43.4532466 36.34441474 -38.83516301 31.84230532 -33.88671875 27.61328125 C-32.66397854 26.56774977 -31.45690837 25.5034941 -30.26953125 24.41796875 C-28.6875 23 -28.6875 23 -26 21 C-19.75771771 23.08076076 -15.54140764 31.26464831 -12.37109375 36.890625 C-5.57254978 51.09653776 -4.92331663 67.07708021 -10 82 C-13.39254744 89.88836235 -17.64028956 96.30619941 -23.69140625 102.390625 C-26.84465224 105.9547 -29.36032689 110.04049034 -32 114 C-21.11 114 -10.22 114 1 114 C1.66 110.7 2.32 107.4 3 104 C5.87654718 95.78624479 11.41542164 89.52171651 17 83 C22.43308549 76.54298686 26.44337143 71.10242858 27.375 62.5625 C26.29931356 52.34347882 21.58054626 46.66866808 15 39 C4.99289647 26.67865402 0 15.94076069 0 0 Z M-195 144 C-195.29448133 184.00630363 -195.29448133 184.00630363 -178 219 C-172.67098506 223.94919314 -166.81885896 226.62457782 -160 229 C-158.85705103 225.57115308 -159.18483821 224.24697701 -159.9609375 220.7734375 C-160.18523437 219.74089844 -160.40953125 218.70835937 -160.640625 217.64453125 C-160.88296875 216.56558594 -161.1253125 215.48664063 -161.375 214.375 C-161.84528276 212.25872758 -162.31149558 210.14154621 -162.7734375 208.0234375 C-162.98403809 207.08419434 -163.19463867 206.14495117 -163.41162109 205.17724609 C-164.87528899 197.27343944 -165.18562296 189.42630668 -165.31640625 181.40234375 C-165.33718735 180.32747208 -165.35796844 179.2526004 -165.37937927 178.14515686 C-165.44428168 174.74266381 -165.50348146 171.34009968 -165.5625 167.9375 C-165.60574174 165.61783146 -165.64935775 163.29816987 -165.69335938 160.97851562 C-165.80059927 155.31908188 -165.90011243 149.6595873 -166 144 C-175.57 144 -185.14 144 -195 144 Z M-12 179 C-11.18859703 186.45359809 -11.18859703 186.45359809 -9.89941406 193.74511719 C-9.68071655 194.79098495 -9.46201904 195.83685272 -9.23669434 196.91441345 C-8.99874146 198.03062576 -8.76078857 199.14683807 -8.515625 200.296875 C-8.26349243 201.49627213 -8.01135986 202.69566925 -7.75158691 203.93141174 C-7.06474205 207.1939379 -6.37406914 210.45560488 -5.68138123 213.71689224 C-4.95582253 217.13646389 -4.23459439 220.55694922 -3.51269531 223.97729492 C-2.30189207 229.71061266 -1.08754229 235.44317054 0.12890625 241.17529297 C1.53629643 247.80740127 2.93784309 254.44072451 4.33636093 261.07470894 C5.68322348 267.4629341 7.03432472 273.85025569 8.3873291 280.23718262 C8.96289248 282.95457562 9.53692728 285.67228493 10.10974121 288.39025879 C10.90735945 292.17385901 11.7111537 295.95613188 12.515625 299.73828125 C12.87255432 301.43689049 12.87255432 301.43689049 13.23669434 303.16981506 C13.45539185 304.19312424 13.67408936 305.21643341 13.89941406 306.27075195 C14.08892639 307.16518509 14.27843872 308.05961823 14.47369385 308.9811554 C14.81358431 310.98220402 14.81358431 310.98220402 16 312 C18.14558827 312.08775605 20.29404421 312.10695219 22.44140625 312.09765625 C23.74658203 312.09443359 25.05175781 312.09121094 26.39648438 312.08789062 C27.7851569 312.07953401 29.17382877 312.07106905 30.5625 312.0625 C31.95507656 312.05748666 33.34765481 312.05292347 34.74023438 312.04882812 C38.16020078 312.03699433 41.5800723 312.01967209 45 312 C41.76858262 294.89644747 38.34844778 277.84296563 34.734375 260.81640625 C34.25051271 258.52908121 33.76681254 256.24172187 33.28326416 253.95433044 C32.28313099 249.22582315 31.28137198 244.49766442 30.27832031 239.76977539 C28.99211959 233.70680245 27.70970339 227.64303619 26.42840195 221.57902622 C25.43632596 216.88545545 24.44253503 212.19224914 23.44818878 207.49915886 C22.97404434 205.26049861 22.50038251 203.02173608 22.02721405 200.78286934 C21.37109489 197.67983075 20.71272401 194.5772786 20.05371094 191.47485352 C19.85944519 190.5540097 19.66517944 189.63316589 19.46502686 188.68441772 C19.2857666 187.84279587 19.10650635 187.00117401 18.92181396 186.13404846 C18.68958445 185.03845281 18.68958445 185.03845281 18.45266342 183.92072392 C17.98310568 181.79902051 17.98310568 181.79902051 17 179 C7.43 179 -2.14 179 -12 179 Z M-39.82862854 201.70837402 C-41.02442787 202.90750427 -41.02442787 202.90750427 -42.24438477 204.13085938 C-43.59567223 205.48226013 -43.59567223 205.48226013 -44.97425842 206.86096191 C-45.96336078 207.8551718 -46.95240876 208.84943579 -47.94140625 209.84375 C-48.94867055 210.85287837 -49.95615514 211.86178691 -50.96385193 212.8704834 C-53.62109691 215.53155447 -56.27532585 218.19561446 -58.92895508 220.86029053 C-61.63507963 223.57662725 -64.34402192 226.29015059 -67.05273438 229.00390625 C-72.37126434 234.33317514 -77.68661382 239.66560212 -83 245 C-78.24863726 250.71700538 -73.15385413 255.97689423 -67.8828125 261.21484375 C-66.5970784 262.49845543 -66.5970784 262.49845543 -65.28536987 263.80799866 C-62.56760046 266.52020465 -59.84636109 269.2288983 -57.125 271.9375 C-55.27320658 273.78427369 -53.42164166 275.63127653 -51.5703125 277.47851562 C-47.04951565 281.98833201 -42.52587054 286.49527569 -38 291 C-34.31541017 287.88227323 -30.65324874 284.78327968 -27.25390625 281.3515625 C-26.64482422 280.73925781 -26.03574219 280.12695312 -25.40820312 279.49609375 C-24.79912109 278.87863281 -24.19003906 278.26117188 -23.5625 277.625 C-22.92634766 276.98433594 -22.29019531 276.34367187 -21.63476562 275.68359375 C-20.08749668 274.12469121 -18.54263508 272.56348584 -17 271 C-21.81867247 265.19108254 -27.01256408 259.86934448 -32.375 254.5625 C-33.20644531 253.73556641 -34.03789062 252.90863281 -34.89453125 252.05664062 C-36.9274104 250.03544469 -38.96259963 248.01663665 -41 246 C-36.18132753 240.19108254 -30.98743592 234.86934448 -25.625 229.5625 C-24.79355469 228.73556641 -23.96210938 227.90863281 -23.10546875 227.05664062 C-21.0725896 225.03544469 -19.03740037 223.01663665 -17 221 C-21.22958034 215.95179121 -25.64199586 211.20353723 -30.3125 206.5625 C-31.26092773 205.60827148 -31.26092773 205.60827148 -32.22851562 204.63476562 C-33.13053711 203.73467773 -33.13053711 203.73467773 -34.05078125 202.81640625 C-34.59387939 202.27443604 -35.13697754 201.73246582 -35.6965332 201.17407227 C-37.75151169 199.32309052 -37.72836103 199.74622459 -39.82862854 201.70837402 Z M68.05053711 201.8359375 C66.8015564 203.09277344 66.8015564 203.09277344 65.52734375 204.375 C64.62822266 205.27734375 63.72910156 206.1796875 62.80273438 207.109375 C61.84760264 208.07286352 60.89252523 209.0364059 59.9375 210 C58.97874399 210.9637689 58.01976256 211.9273136 57.06054688 212.890625 C54.70479686 215.25821295 52.35140261 217.62809556 50 220 C54.81867247 225.80891746 60.01256408 231.13065552 65.375 236.4375 C66.20644531 237.26443359 67.03789062 238.09136719 67.89453125 238.94335938 C69.9274104 240.96455531 71.96259963 242.98336335 74 245 C69.18132753 250.80891746 63.98743592 256.13065552 58.625 261.4375 C57.37783203 262.67790039 57.37783203 262.67790039 56.10546875 263.94335938 C54.0725896 265.96455531 52.03740037 267.98336335 50 270 C54.23816537 275.06623768 58.67408963 279.80038069 63.375 284.4375 C64.01566406 285.07365234 64.65632813 285.70980469 65.31640625 286.36523438 C66.87531022 287.91250473 68.43696852 289.45690292 70 291 C75.71700538 286.24863726 80.97689423 281.15385413 86.21484375 275.8828125 C87.07058487 275.02565643 87.92632599 274.16850037 88.80799866 273.28536987 C91.52020465 270.56760046 94.2288983 267.84636109 96.9375 265.125 C98.78427369 263.27320658 100.63127653 261.42164166 102.47851562 259.5703125 C106.98833201 255.04951565 111.49527569 250.52587054 116 246 C111.25272015 240.29306727 106.17180505 235.02600679 100.91796875 229.78515625 C100.06318436 228.92941513 99.20839996 228.07367401 98.32771301 227.19200134 C96.53293621 225.39654746 94.73690964 223.60234209 92.93969727 221.80932617 C90.17543024 219.0504538 87.41658841 216.28623611 84.65820312 213.52148438 C82.91177924 211.77572058 81.16504556 210.03026663 79.41796875 208.28515625 C78.58887497 207.45403824 77.75978119 206.62292023 76.90556335 205.76661682 C76.14419571 205.00840134 75.38282806 204.25018585 74.59838867 203.46899414 C73.9258757 202.79727676 73.25336273 202.12555939 72.56047058 201.43348694 C70.24706386 199.30833421 70.41890585 199.60548879 68.05053711 201.8359375 Z " fill="#FFFFFF" transform="translate(266,42)"/>
</svg>
