<?xml version="1.0" encoding="UTF-8"?>
<svg version="1.1" xmlns="http://www.w3.org/2000/svg" width="512" height="512">
<path d="M0 0 C0.68368652 0.25120605 1.36737305 0.50241211 2.07177734 0.76123047 C24.5150537 9.1729519 43.24355488 21.8025958 60 39 C60.85271484 39.78503906 60.85271484 39.78503906 61.72265625 40.5859375 C84.84898356 62.37893779 98.17063005 96.29137657 99.203125 127.734375 C99.84197588 168.66559159 85.72633361 203.93470815 60.87890625 235.95703125 C45.95914266 255.23667729 36.16901777 276.00582719 31 299.875 C28.45864208 311.38888039 24.03537861 320.20297277 15 328 C15.49628906 328.40089844 15.99257813 328.80179687 16.50390625 329.21484375 C25.10178912 336.40965655 31.49722179 343.54724815 33 355 C33.30563005 364.62070256 30.44513874 373.17138835 23.90234375 380.296875 C18.31449749 385.2995464 12.52664351 389.13664971 5 390 C5.33 390.66 5.66 391.32 6 392 C6.24927154 397.23470242 5.91806304 401.64231607 4.75 406.75 C4.12905515 409.48705155 4.12905515 409.48705155 4 412 C5.87197454 414.69433317 5.87197454 414.69433317 8 417 C8.30291335 421.3922436 8.114309 423.70604205 5.20703125 427.08203125 C4.49933594 427.85933594 3.79164063 428.63664062 3.0625 429.4375 C-2.22543151 436.16247151 -1.99724486 443.20209755 -2.41821289 451.50537109 C-3.07302228 464.32514734 -4.72703699 478.85335489 -14.0625 488.5 C-17.97194689 491.59884883 -21.61859769 491.69150261 -26.48046875 491.37890625 C-29.80195905 490.87939531 -31.56257147 490.36356706 -34 488 C-37.35595759 482.60526953 -39.15622714 477.62344573 -39.0625 471.25 C-39.05347656 470.45078125 -39.04445313 469.6515625 -39.03515625 468.828125 C-39.01775391 467.92320312 -39.01775391 467.92320312 -39 467 C-39.66 467 -40.32 467 -41 467 C-41.33 467.99 -41.66 468.98 -42 470 C-48.3842424 474.32577172 -55.37143015 475.72842247 -63 475 C-69.28459448 473.78331784 -74.02944576 472.29407232 -78 467 C-78.4125 465.824375 -78.825 464.64875 -79.25 463.4375 C-81.70124143 458.62256147 -85.04758038 457.6715714 -90 456 C-90.25652344 456.58007812 -90.51304687 457.16015625 -90.77734375 457.7578125 C-94.93325418 465.37919457 -103.81786659 472.2726222 -112 475 C-116.96466601 475.52124721 -120.87882824 475.53000847 -125.4375 473.375 C-129.34942527 469.74931317 -131.11478821 466.28854141 -131.625 461 C-131.29950847 451.3979998 -124.46715414 441.62488961 -118 435 C-119.19919433 432.48868273 -120.40050366 430.45385864 -122.0625 428.1875 C-124.22985005 424.62185959 -124.84338388 422.15032722 -125 418 C-124.34 417.01 -123.68 416.02 -123 415 C-122.61500109 413.34450469 -122.27206865 411.6777567 -122 410 C-122.886875 409.938125 -123.77375 409.87625 -124.6875 409.8125 C-128.89285611 408.78099756 -130.39011484 407.43013479 -133 404 C-134.03981819 399.98927269 -134.18117045 397.61145026 -133 393.625 C-132.61110085 390.00722201 -132.61110085 390.00722201 -134.7578125 387.91015625 C-136.37064836 386.39579387 -137.99626078 384.89495125 -139.6328125 383.40625 C-145.51251085 377.42952692 -148.10199837 369.74280071 -148.3125 361.5 C-148.14907116 348.03346381 -141.42364273 336.1785683 -133 326 C-133.97460296 323.99267556 -134.96618409 322.05417447 -136.1484375 320.16015625 C-139.56266397 314.32117658 -140.76769028 308.64020578 -141.875 302.0625 C-144.49934297 286.84591486 -148.78175098 272.87623652 -159 261 C-159.82371094 260.03707031 -160.64742187 259.07414062 -161.49609375 258.08203125 C-161.93332764 257.57124023 -162.37056152 257.06044922 -162.82104492 256.53417969 C-163.2719751 256.00727539 -163.72290527 255.48037109 -164.1875 254.9375 C-164.64809814 254.40157227 -165.10869629 253.86564453 -165.58325195 253.31347656 C-195.62434102 217.98306672 -218.00610988 175.36583561 -215 128 C-211.60553862 87.96725549 -193.37345929 51.59289689 -162.67822266 25.43847656 C-118.5324812 -10.70770101 -53.03249558 -19.52710914 0 0 Z " fill="#FDC50F" transform="translate(314,15)"/>
<path d="M0 0 C0.68368652 0.25120605 1.36737305 0.50241211 2.07177734 0.76123047 C24.5150537 9.1729519 43.24355488 21.8025958 60 39 C60.85271484 39.78503906 60.85271484 39.78503906 61.72265625 40.5859375 C84.84898356 62.37893779 98.17063005 96.29137657 99.203125 127.734375 C99.84197588 168.66559159 85.72633361 203.93470815 60.87890625 235.95703125 C45.95914266 255.23667729 36.16901777 276.00582719 31 299.875 C28.45864208 311.38888039 24.03537861 320.20297277 15 328 C15.49628906 328.40089844 15.99257813 328.80179687 16.50390625 329.21484375 C25.10178912 336.40965655 31.49722179 343.54724815 33 355 C33.30563005 364.62070256 30.44513874 373.17138835 23.90234375 380.296875 C18.31449749 385.2995464 12.52664351 389.13664971 5 390 C5.33 390.66 5.66 391.32 6 392 C6.24927154 397.23470242 5.91806304 401.64231607 4.75 406.75 C4.12905515 409.48705155 4.12905515 409.48705155 4 412 C5.87197454 414.69433317 5.87197454 414.69433317 8 417 C8.30291335 421.3922436 8.114309 423.70604205 5.20703125 427.08203125 C4.49933594 427.85933594 3.79164063 428.63664062 3.0625 429.4375 C-2.22543151 436.16247151 -1.99724486 443.20209755 -2.41821289 451.50537109 C-3.07302228 464.32514734 -4.72703699 478.85335489 -14.0625 488.5 C-17.97194689 491.59884883 -21.61859769 491.69150261 -26.48046875 491.37890625 C-29.80195905 490.87939531 -31.56257147 490.36356706 -34 488 C-37.35595759 482.60526953 -39.15622714 477.62344573 -39.0625 471.25 C-39.05347656 470.45078125 -39.04445313 469.6515625 -39.03515625 468.828125 C-39.01775391 467.92320312 -39.01775391 467.92320312 -39 467 C-39.66 467 -40.32 467 -41 467 C-41.33 467.99 -41.66 468.98 -42 470 C-48.3842424 474.32577172 -55.37143015 475.72842247 -63 475 C-69.28459448 473.78331784 -74.02944576 472.29407232 -78 467 C-78.4125 465.824375 -78.825 464.64875 -79.25 463.4375 C-81.70124143 458.62256147 -85.04758038 457.6715714 -90 456 C-90.25652344 456.58007812 -90.51304687 457.16015625 -90.77734375 457.7578125 C-94.93325418 465.37919457 -103.81786659 472.2726222 -112 475 C-116.96466601 475.52124721 -120.87882824 475.53000847 -125.4375 473.375 C-129.34942527 469.74931317 -131.11478821 466.28854141 -131.625 461 C-131.29950847 451.3979998 -124.46715414 441.62488961 -118 435 C-119.19919433 432.48868273 -120.40050366 430.45385864 -122.0625 428.1875 C-124.22985005 424.62185959 -124.84338388 422.15032722 -125 418 C-124.34 417.01 -123.68 416.02 -123 415 C-122.61500109 413.34450469 -122.27206865 411.6777567 -122 410 C-122.886875 409.938125 -123.77375 409.87625 -124.6875 409.8125 C-128.89285611 408.78099756 -130.39011484 407.43013479 -133 404 C-134.03981819 399.98927269 -134.18117045 397.61145026 -133 393.625 C-132.61110085 390.00722201 -132.61110085 390.00722201 -134.7578125 387.91015625 C-136.37064836 386.39579387 -137.99626078 384.89495125 -139.6328125 383.40625 C-145.51251085 377.42952692 -148.10199837 369.74280071 -148.3125 361.5 C-148.14907116 348.03346381 -141.42364273 336.1785683 -133 326 C-133.97460296 323.99267556 -134.96618409 322.05417447 -136.1484375 320.16015625 C-139.56266397 314.32117658 -140.76769028 308.64020578 -141.875 302.0625 C-144.49934297 286.84591486 -148.78175098 272.87623652 -159 261 C-159.82371094 260.03707031 -160.64742187 259.07414062 -161.49609375 258.08203125 C-161.93332764 257.57124023 -162.37056152 257.06044922 -162.82104492 256.53417969 C-163.2719751 256.00727539 -163.72290527 255.48037109 -164.1875 254.9375 C-164.64809814 254.40157227 -165.10869629 253.86564453 -165.58325195 253.31347656 C-195.62434102 217.98306672 -218.00610988 175.36583561 -215 128 C-211.60553862 87.96725549 -193.37345929 51.59289689 -162.67822266 25.43847656 C-118.5324812 -10.70770101 -53.03249558 -19.52710914 0 0 Z M-102 3 C-102.72864258 3.19754883 -103.45728516 3.39509766 -104.20800781 3.59863281 C-108.57893772 4.8230007 -112.78416161 6.32282951 -117 8 C-117.69609375 8.27682617 -118.3921875 8.55365234 -119.109375 8.83886719 C-154.89800963 23.30761152 -182.3697036 49.59151369 -197.85595703 84.95458984 C-211.04262836 117.08353691 -211.53209235 156.45717449 -198.34130859 188.51196289 C-188.28548498 211.88045539 -174.34909359 232.99889518 -157.578125 252.10107422 C-148.37803383 262.59654339 -142.64772919 273.42033489 -139 287 C-138.66355469 288.00804687 -138.32710938 289.01609375 -137.98046875 290.0546875 C-137.08949179 292.73116809 -136.3692812 295.38950979 -135.6875 298.125 C-131.93369795 312.24274206 -131.93369795 312.24274206 -122.38777161 322.62371826 C-118.36146534 324.25940462 -114.85194285 324.4076821 -110.58081055 324.35644531 C-109.7551207 324.35848969 -108.92943085 324.36053406 -108.07872009 324.36264038 C-105.34782705 324.36564623 -102.61754039 324.34713518 -99.88671875 324.328125 C-97.95652922 324.32505896 -96.02633746 324.32318928 -94.09614563 324.32244873 C-90.03333133 324.3178423 -85.97071481 324.30343357 -81.90795898 324.28125 C-76.8051507 324.25347227 -71.70249873 324.24221974 -66.59962273 324.23737335 C-54.95528943 324.22573547 -43.31260608 324.14732606 -31.66893768 324.02529907 C-29.07977038 324.00075615 -26.49066957 323.98391281 -23.90142822 323.96948242 C-20.03860273 323.94631687 -16.17691684 323.89837484 -12.31464577 323.82930756 C-10.28861295 323.7981304 -8.26226716 323.78985055 -6.23600769 323.78253174 C1.45570942 323.60645295 7.63921086 322.5631031 14 318 C19.07167538 312.39873474 20.70680426 305.20689107 22.625 298.0625 C23.19892016 295.9904414 23.77441772 293.91881899 24.3515625 291.84765625 C24.62863037 290.8510498 24.90569824 289.85444336 25.19116211 288.82763672 C31.90384966 265.36058351 43.4730339 246.4460871 58.32128906 227.29589844 C79.33794399 200.1007742 91.44837734 167.28911753 91.4375 132.9375 C91.43910126 131.85508026 91.43910126 131.85508026 91.44073486 130.75079346 C91.41486485 118.58953597 90.09870793 107.50073096 86 96 C85.77006348 95.3292041 85.54012695 94.6584082 85.30322266 93.96728516 C72.76387833 57.99986649 45.83253246 29.82073908 12 13 C1.08151257 7.83653969 -10.26931364 3.85558422 -22 1 C-22.66499512 0.83483887 -23.32999023 0.66967773 -24.01513672 0.49951172 C-48.87622402 -5.33418676 -77.5753997 -3.75128328 -102 3 Z " fill="#861C1B" transform="translate(314,15)"/>
<path d="M0 0 C34.32453993 12.71989468 61.68340286 40.12021629 77.01416016 73.00610352 C80.08547339 79.85647945 82.25503837 86.69197264 84 94 C84.24862793 94.82741699 84.49725586 95.65483398 84.75341797 96.50732422 C87.0136244 104.42005403 87.46436238 111.96478716 87.39111328 120.12548828 C87.37512084 122.23406707 87.39100129 124.34069997 87.41015625 126.44921875 C87.42438073 136.27826514 86.12795178 145.40128795 84 155 C83.78770752 155.96260742 83.57541504 156.92521484 83.35668945 157.91699219 C77.87817677 181.40405687 65.2717221 203.39971596 50.5 222.1875 C36.22871965 240.3428422 26.54524577 259.56156926 20.3515625 281.84765625 C20.06796875 282.86537109 19.784375 283.88308594 19.4921875 284.93164062 C18.91360977 287.02051474 18.34330142 289.11169678 17.78125 291.20507812 C13.82530786 305.25580053 13.82530786 305.25580053 8.02891541 309.41401672 C0.64566045 313.41728439 -5.91424819 313.76692162 -14.20703125 313.796875 C-15.63730223 313.81888441 -17.06754531 313.84277133 -18.49775696 313.86834717 C-22.47009011 313.93169982 -26.44204996 313.961349 -30.41480255 313.98348999 C-33.077719 314.00049634 -35.74043572 314.02604838 -38.40325928 314.05395508 C-50.13964031 314.17555522 -61.87508344 314.22908734 -73.61206055 314.24023438 C-78.7459457 314.24582854 -83.87958004 314.27017459 -89.01338482 314.29820633 C-93.01537345 314.31678835 -97.01729903 314.32203482 -101.01932716 314.32357025 C-102.91511294 314.32658164 -104.81089801 314.33455853 -106.70664024 314.34775543 C-109.33157049 314.36480446 -111.95584748 314.36294461 -114.58081055 314.35644531 C-115.34896088 314.3656601 -116.11711121 314.37487488 -116.90853882 314.3843689 C-121.68153843 314.34733853 -124.90644417 313.44528118 -129 311 C-129 309.02 -129 307.04 -129 305 C-125.66433505 303.99656024 -122.62783026 303.87098911 -119.15234375 303.8671875 C-118.00056641 303.86525391 -116.84878906 303.86332031 -115.66210938 303.86132812 C-113.81842773 303.8680957 -113.81842773 303.8680957 -111.9375 303.875 C-110.02614258 303.87790039 -110.02614258 303.87790039 -108.07617188 303.88085938 C-101.36536669 303.91140932 -94.69517712 304.05423343 -88 304.5 C-84.66772159 304.69473361 -81.3347723 304.85417382 -78 305 C-77.3624176 305.02829895 -76.72483521 305.0565979 -76.06793213 305.08575439 C-71.44902247 305.28294595 -66.83200171 305.41920968 -62.2097168 305.50683594 C-60.64094252 305.54326333 -59.07241882 305.59397283 -57.50463867 305.66064453 C-45.04424296 306.17383819 -36.64250827 303.4313273 -26 297 C-25.05858154 296.43450439 -24.11716309 295.86900879 -23.1472168 295.28637695 C-11.27346518 287.70244611 -7.42865241 269.6263707 -3 257 C-3.59748047 256.82476807 -4.19496094 256.64953613 -4.81054688 256.46899414 C-9.38088404 255.05257882 -12.96432921 253.79204011 -16.5 250.4375 C-17.1496875 249.83808594 -17.799375 249.23867188 -18.46875 248.62109375 C-21.7411997 245.15663808 -21.51255884 241.47206616 -21.4765625 236.89453125 C-20.45329967 230.67946767 -15.67868453 227.30183698 -10.9375 223.625 C-4.91194491 220.2917142 0.1441174 219.72669242 6.875 219.875 C7.65875 219.88402344 8.4425 219.89304688 9.25 219.90234375 C11.16680055 219.92571937 13.08344191 219.96158347 15 220 C15.27239502 219.12706299 15.54479004 218.25412598 15.82543945 217.35473633 C16.93997397 214.17144412 18.24909511 211.31872896 19.79296875 208.32421875 C20.33743652 207.25792236 20.8819043 206.19162598 21.44287109 205.09301758 C22.01859863 203.96919678 22.59432617 202.84537598 23.1875 201.6875 C44.29217954 159.84500298 55.23866136 114.95110169 40.75390625 68.77734375 C39.36901522 65.06649331 37.7750652 61.53431875 36 58 C35.3510376 56.68539795 35.3510376 56.68539795 34.68896484 55.34423828 C29.11677473 44.13456624 23.42920579 33.10612609 16 23 C14.89011719 21.4840625 14.89011719 21.4840625 13.7578125 19.9375 C9.68473885 14.45187892 5.50786757 9.05735985 1.21484375 3.7421875 C0 2 0 2 0 0 Z " fill="#F1980A" transform="translate(318,25)"/>
<path d="M0 0 C0.72785202 -0.00961258 1.45570404 -0.01922516 2.20561218 -0.02912903 C4.55378947 -0.05375868 6.90170869 -0.06638044 9.25 -0.07421875 C10.04814117 -0.07750183 10.84628235 -0.08078491 11.66860962 -0.08416748 C39.12048685 -0.12067859 39.12048685 -0.12067859 51.25 4.23828125 C51.58 4.89828125 51.91 5.55828125 52.25 6.23828125 C50.58167114 6.26015503 50.58167114 6.26015503 48.87963867 6.2824707 C44.65409078 6.3415405 40.42901732 6.41873774 36.20385742 6.50073242 C34.39371584 6.53348143 32.58348433 6.56165894 30.77319336 6.5847168 C-2.21623671 7.01577135 -39.15151857 14.2611691 -65.5625 35.5 C-67.75 37.23828125 -67.75 37.23828125 -69.75 37.23828125 C-69.75 38.55828125 -69.75 39.87828125 -69.75 41.23828125 C-68.96625 41.32078125 -68.1825 41.40328125 -67.375 41.48828125 C-59.39405766 43.1395107 -53.32539624 45.3058627 -48.75 52.23828125 C-44.35512077 59.80131372 -44.81038039 68.35227558 -46.4375 76.80078125 C-50.50544644 92.02733077 -57.77588304 104.02688609 -68.75 115.23828125 C-69.29011719 115.81449219 -69.83023438 116.39070313 -70.38671875 116.984375 C-77.49316494 123.87601677 -87.33703886 127.58000017 -97.125 127.80078125 C-102.64927231 127.56596878 -106.68682507 126.31779952 -111.75 124.23828125 C-115.60289841 124.34883129 -115.60289841 124.34883129 -118.75 126.23828125 C-119.66495061 131.3123568 -119.92289498 136.31026121 -119.953125 141.453125 C-119.96167511 142.61322838 -119.96167511 142.61322838 -119.97039795 143.79676819 C-119.97979862 145.429684 -119.98636218 147.06261836 -119.99023438 148.69555664 C-119.99985081 151.13789112 -120.03088341 153.57934994 -120.0625 156.02148438 C-120.30118189 191.32783696 -105.11933322 218.27654805 -83.75 245.23828125 C-83.255 244.04203125 -82.76 242.84578125 -82.25 241.61328125 C-79.84522814 236.77797212 -76.41891042 233.87366232 -71.75 231.23828125 C-62.90186105 228.35912492 -54.00222567 230.55546979 -45.75 234.23828125 C-40.56957236 237.24191682 -36.33798255 240.73881833 -33.75 246.23828125 C-33.09505386 250.48413901 -33.24361981 254.000463 -34.875 257.98828125 C-39.65536836 263.72472328 -44.42639928 266.82523255 -51.8984375 267.5390625 C-58.59302763 267.56337699 -63.6705022 267.09922139 -69.75 264.23828125 C-69.23050781 265.14707031 -68.71101563 266.05585938 -68.17578125 266.9921875 C-57.77855565 285.52355168 -55.86284389 301.10107151 -55.75 322.23828125 C-63.62820803 314.71334248 -66.10112267 303.78230811 -68.125 293.3984375 C-71.07576322 278.47864099 -78.82994566 265.53525165 -88.75 254.23828125 C-114.77867044 223.09520539 -138.57096242 186.21149811 -138.08618164 144.29443359 C-138.06243587 142.10737425 -138.06567339 139.92153243 -138.07226562 137.734375 C-138.0496035 125.84445101 -136.6106137 114.42714531 -133.5625 102.92578125 C-133.35036865 102.12527344 -133.1382373 101.32476562 -132.91967773 100.5 C-127.06159097 79.39669636 -115.72892701 61.07524827 -100.75 45.23828125 C-99.55310547 43.92730469 -99.55310547 43.92730469 -98.33203125 42.58984375 C-86.51554532 30.11192064 -72.33280473 21.25608274 -56.75 14.23828125 C-56.10691895 13.93583496 -55.46383789 13.63338867 -54.80126953 13.32177734 C-38.01025715 5.4529575 -18.58408597 0.20704005 0 0 Z " fill="#FEDA79" transform="translate(244.75,12.76171875)"/>
<path d="M0 0 C1.85790582 -0.00738989 3.71580226 -0.01796479 5.57366943 -0.03204346 C14.99061537 -0.09684802 24.32733142 0.04200742 33.70223999 1.00045776 C34.79364037 1.10448662 34.79364037 1.10448662 35.90708923 1.21061707 C40.40620408 1.73498148 43.84360489 2.9328646 47.76864624 5.17623901 C47.07970097 12.52498861 42.04787318 18.3997956 36.76864624 23.17623901 C36.27880249 23.63514526 35.78895874 24.09405151 35.28427124 24.56686401 C31.91551914 27.61478258 28.33072578 30.30107674 24.58114624 32.86373901 C23.76259155 33.4244812 22.94403687 33.98522339 22.10067749 34.56295776 C11.93914633 39.48290193 1.3530775 39.73538285 -9.71279907 39.73214722 C-12.2283307 39.7387311 -14.73995002 39.79344644 -17.25479126 39.85006714 C-29.48183362 39.98015088 -39.02883672 37.71901317 -48.25015259 29.09127808 C-48.71832397 28.62431519 -49.18649536 28.15735229 -49.66885376 27.67623901 C-50.1918103 27.1757605 -50.71476685 26.67528198 -51.25357056 26.15963745 C-57.51009887 20.09010723 -63.38847358 13.6407022 -69.23135376 7.17623901 C-66.13701111 3.39426467 -62.24323103 2.45865883 -57.53213501 1.79733276 C-53.76606957 1.56595358 -50.00013908 1.35659343 -46.23135376 1.17623901 C-45.37541626 1.13112183 -44.51947876 1.08600464 -43.63760376 1.03952026 C-29.09781215 0.29233653 -14.5567522 0.05322254 0 0 Z " fill="#A49AB2" transform="translate(266.2313537597656,428.8237609863281)"/>
<path d="M0 0 C1.65332031 1.63793945 1.65332031 1.63793945 2.02832031 4.20043945 C1.65332031 6.63793945 1.65332031 6.63793945 -0.34667969 8.63793945 C-3.0831165 9.38533051 -5.78328253 10.03366889 -8.55371094 10.6262207 C-9.38153076 10.80957474 -10.20935059 10.99292877 -11.06225586 11.18183899 C-13.75981076 11.77803932 -16.45944028 12.36421848 -19.15917969 12.95043945 C-21.94292298 13.5628453 -24.72609849 14.17778044 -27.50920105 14.79309082 C-29.33309272 15.19630606 -31.15715822 15.59873584 -32.98139954 16.00036621 C-39.06140996 17.34177056 -45.11610711 18.76369646 -51.15917969 20.26293945 C-65.39642673 23.73805406 -79.82097679 26.42666927 -94.20410156 29.22076416 C-96.27556322 29.62409257 -98.34636446 30.03064689 -100.41699219 30.43823242 C-104.10007854 31.16043357 -107.78527065 31.87041952 -111.47167969 32.57543945 C-112.54820801 32.7868457 -113.62473633 32.99825195 -114.73388672 33.21606445 C-130.14023119 36.10890512 -130.14023119 36.10890512 -135.34667969 32.63793945 C-135.28417969 29.88793945 -135.28417969 29.88793945 -134.34667969 26.63793945 C-129.65838572 23.47215186 -125.22793179 21.81801832 -119.69042969 20.6652832 C-118.5959552 20.42273048 -118.5959552 20.42273048 -117.47937012 20.17527771 C-115.10407011 19.6517885 -112.7255684 19.14484429 -110.34667969 18.63793945 C-108.70973345 18.27976533 -107.0730169 17.92053994 -105.43652344 17.56030273 C-100.2438267 16.42185118 -95.04575952 15.30931847 -89.84667969 14.20043945 C-88.92570496 14.00340424 -88.00473022 13.80636902 -87.05584717 13.60336304 C-75.41968895 11.11457613 -63.77841173 8.66360768 -52.09765625 6.39135742 C-46.73609645 5.34235659 -41.40151032 4.21286773 -36.07324219 3.00512695 C-34.20611572 2.58686646 -34.20611572 2.58686646 -32.30126953 2.16015625 C-29.92130994 1.62390464 -27.54375606 1.07679707 -25.16943359 0.51611328 C-6.37176984 -3.69830461 -6.37176984 -3.69830461 0 0 Z " fill="#897C99" transform="translate(322.3466796875,382.362060546875)"/>
<path d="M0 0 C1.15628906 -0.00515625 2.31257812 -0.0103125 3.50390625 -0.015625 C6.4375 0.25 6.4375 0.25 9.4375 2.25 C8.5625 9.125 8.5625 9.125 7.4375 10.25 C6.02477992 10.58891012 4.59995743 10.87766301 3.171875 11.14453125 C-13.21989804 14.29567826 -29.50881757 17.96734024 -45.75 21.8125 C-63.9492258 26.10791119 -82.25250973 29.72610479 -100.66210938 32.99487305 C-101.51224609 33.14609619 -102.36238281 33.29731934 -103.23828125 33.453125 C-103.97989502 33.58364258 -104.72150879 33.71416016 -105.4855957 33.84863281 C-106.87370321 34.11688822 -108.25369049 34.43105535 -109.62133789 34.78930664 C-112.63706231 35.50502441 -115.59584489 35.42136401 -118.6875 35.4375 C-119.92757812 35.45167969 -121.16765625 35.46585937 -122.4453125 35.48046875 C-125.5625 35.25 -125.5625 35.25 -127.5625 33.25 C-127.5625 30.875 -127.5625 30.875 -126.5625 28.25 C-122.29620435 24.91225576 -118.46459604 23.43186668 -113.21875 22.21484375 C-112.52414673 22.05128891 -111.82954346 21.88773407 -111.1138916 21.71922302 C-108.93351186 21.21252088 -106.74951448 20.72719911 -104.5625 20.25 C-103.87978027 20.10089172 -103.19706055 19.95178345 -102.49365234 19.79815674 C-98.40161708 18.91413432 -94.30219768 18.06978937 -90.19827271 17.2428894 C-87.9881772 16.79752287 -85.77903548 16.34765662 -83.57006836 15.89672852 C-80.60022124 15.29073664 -77.63009804 14.68613564 -74.65966797 14.08300781 C-69.14570039 12.96280597 -63.63425689 11.83064734 -58.125 10.6875 C-57.19075195 10.49381836 -56.25650391 10.30013672 -55.29394531 10.10058594 C-46.50622449 8.26439091 -37.74631352 6.30390909 -28.99438477 4.30444336 C-9.74593993 -0.04435012 -9.74593993 -0.04435012 0 0 Z " fill="#A499B0" transform="translate(314.5625,346.75)"/>
<path d="M0 0 C4.15307445 2.93339831 7.40660352 5.94508716 9.6015625 10.609375 C10.25650864 14.85523276 10.10794269 18.37155675 8.4765625 22.359375 C3.71772591 28.06997891 -1.01661852 31.06876097 -8.40625 31.98046875 C-19.85700845 32.22440721 -28.58258391 28.99436458 -36.97265625 21.16015625 C-40.19629836 17.65389346 -39.73129908 13.9190721 -39.671875 9.3671875 C-39.20930896 4.70187859 -37.21309402 2.15456976 -33.71484375 -0.82421875 C-23.53263238 -8.5539405 -10.58245571 -6.13575608 0 0 Z " fill="#F48B9F" transform="translate(201.3984375,248.390625)"/>
<path d="M0 0 C4.68859782 2.64266422 8.02174974 6.10599947 10.4375 10.9375 C10.84895444 15.40811078 10.99218391 19.55079021 9.3125 23.75 C4.31212865 29.58376657 -0.24339894 31.96799644 -7.5625 33.9375 C-8.18382812 34.12183594 -8.80515625 34.30617188 -9.4453125 34.49609375 C-16.51980073 35.97103318 -24.54701407 36.0978449 -30.83984375 32.25 C-34.95501029 29.11463501 -37.95714493 26.5208624 -39.17578125 21.3203125 C-39.55126117 16.00469482 -38.89162974 12.62341546 -35.4375 8.5 C-25.8526149 -0.93060123 -13.07863754 -4.09814174 0 0 Z " fill="#F48BA0" transform="translate(335.5625,246.0625)"/>
<path d="M0 0 C6.32278971 0.32626495 11.55464391 0.61504892 17 4 C16.31105473 11.3487496 11.27922694 17.22355658 6 22 C5.51015625 22.45890625 5.0203125 22.9178125 4.515625 23.390625 C1.1468729 26.43854357 -2.43792046 29.12483772 -6.1875 31.6875 C-7.00605469 32.24824219 -7.82460938 32.80898438 -8.66796875 33.38671875 C-18.3681511 38.08329004 -28.14569438 38.40334964 -38.75 38.1875 C-40.03132813 38.17396484 -41.31265625 38.16042969 -42.6328125 38.14648438 C-45.75566695 38.11152705 -48.87759541 38.0624609 -52 38 C-49.66232161 36.44154774 -47.84093666 35.49913567 -45.3125 34.4375 C-34.07571369 28.85003378 -28.17467781 16.13247415 -24 5 C-16.08 4.01 -8.16 3.02 0 2 C0 1.34 0 0.68 0 0 Z " fill="#897D9A" transform="translate(297,430)"/>
<path d="M0 0 C-0.11437651 2.72998676 -0.24111406 5.4584582 -0.375 8.1875 C-0.4059375 8.95642578 -0.436875 9.72535156 -0.46875 10.51757812 C-0.50742187 11.26845703 -0.54609375 12.01933594 -0.5859375 12.79296875 C-0.63306885 13.82200317 -0.63306885 13.82200317 -0.68115234 14.87182617 C-1.06694901 17.44685646 -2.00675885 19.60120586 -3 22 C-3.59810486 21.93016907 -4.19620972 21.86033813 -4.81243896 21.78839111 C-13.50410962 20.87792344 -22.16327376 20.81798908 -30.890625 20.796875 C-31.69030449 20.79404762 -32.48998398 20.79122025 -33.31389618 20.78830719 C-37.55497047 20.77339688 -41.79601152 20.76411878 -46.03710938 20.75976562 C-49.49099407 20.75540119 -52.94462613 20.74157724 -56.3984375 20.71875 C-75.48750657 20.59487822 -94.12916245 20.6698522 -113 24 C-113.33 23.34 -113.66 22.68 -114 22 C-112.70940674 21.76925781 -111.41881348 21.53851563 -110.08911133 21.30078125 C-83.93679749 16.61351409 -57.8953753 11.64989071 -31.9609375 5.87695312 C-25.96164004 4.54450843 -19.95131981 3.2650953 -13.9375 2 C-12.9673999 1.79213867 -11.9972998 1.58427734 -10.99780273 1.37011719 C-10.12067627 1.18610352 -9.2435498 1.00208984 -8.33984375 0.8125 C-7.59081787 0.65394531 -6.84179199 0.49539063 -6.07006836 0.33203125 C-4 0 -4 0 0 0 Z " fill="#887C99" transform="translate(313,402)"/>
<path d="M0 0 C1.91942849 -0.00745523 3.83884749 -0.01809102 5.75823975 -0.03204346 C8.48502315 -0.05005838 11.21148759 -0.05407176 13.93832397 -0.05422974 C14.74680283 -0.06136993 15.55528168 -0.06851013 16.38825989 -0.0758667 C21.90967944 -0.05424267 26.93607416 0.77900768 32.27426147 2.17623901 C19.68064342 14.76985707 -31.31831944 7.78552688 -48.72573853 8.17623901 C-47.30026538 13.69573436 -47.30026538 13.69573436 -44.70230103 18.71139526 C-44.32073853 19.29340698 -43.93917603 19.8754187 -43.54605103 20.47506714 C-43.1515979 21.05707886 -42.75714478 21.63909058 -42.35073853 22.23873901 C-41.96401978 22.82461792 -41.57730103 23.41049683 -41.17886353 24.01412964 C-39.65590956 26.31644763 -38.12054007 28.60820155 -36.54507446 30.87496948 C-33.72573853 34.96983758 -33.72573853 34.96983758 -33.72573853 37.17623901 C-45.11934129 35.64758032 -54.17985703 24.18958898 -61.72573853 16.17623901 C-62.48886353 15.37057495 -63.25198853 14.56491089 -64.03823853 13.73483276 C-68.72573853 8.60315434 -68.72573853 8.60315434 -68.72573853 5.17623901 C-62.17371177 2.1623067 -56.22821248 1.56478268 -49.06069946 1.27340698 C-46.4818514 1.1660898 -43.90495575 1.03175945 -41.32730103 0.89889526 C-27.55617508 0.24438876 -13.78482133 0.04945137 0 0 Z " fill="#B9AFBF" transform="translate(266.7257385253906,428.8237609863281)"/>
<path d="M0 0 C6.08411826 3.47839489 8.87571306 8.83169273 10.6875 15.4375 C10.953125 18.9453125 10.953125 18.9453125 10.9375 22.5625 C10.94523437 24.36074219 10.94523437 24.36074219 10.953125 26.1953125 C10.7052204 29.22120687 10.27769672 30.90075761 8.6875 33.4375 C8.0275 33.4375 7.3675 33.4375 6.6875 33.4375 C6.0275 32.4475 5.3675 31.4575 4.6875 30.4375 C4.0275 32.0875 3.3675 33.7375 2.6875 35.4375 C1.3675 35.4375 0.0475 35.4375 -1.3125 35.4375 C-1.34988281 34.29152344 -1.38726562 33.14554688 -1.42578125 31.96484375 C-1.49148584 30.43486554 -1.55793159 28.90491903 -1.625 27.375 C-1.64755859 26.62283203 -1.67011719 25.87066406 -1.69335938 25.09570312 C-1.97816694 19.11474423 -2.91031434 13.83968566 -7.3125 9.4375 C-11.11160981 9.72973922 -12.85749473 10.59624057 -15.3125 13.4375 C-19.06379544 19.93330938 -20.69187304 27.18151113 -22.3125 34.4375 C-23.3025 34.4375 -24.2925 34.4375 -25.3125 34.4375 C-25.3125 33.4475 -25.3125 32.4575 -25.3125 31.4375 C-25.9725 31.4375 -26.6325 31.4375 -27.3125 31.4375 C-27.6425 32.7575 -27.9725 34.0775 -28.3125 35.4375 C-29.3025 35.1075 -30.2925 34.7775 -31.3125 34.4375 C-32.59567892 30.58796324 -32.37893637 27.49011865 -32.3125 23.4375 C-30.3325 22.7775 -28.3525 22.1175 -26.3125 21.4375 C-26.3125 20.1175 -26.3125 18.7975 -26.3125 17.4375 C-27.3025 17.1075 -28.2925 16.7775 -29.3125 16.4375 C-27.6400452 9.7476808 -23.85558562 3.79955708 -18.0625 -0.0625 C-12.28805341 -2.91785549 -5.81825621 -2.53588148 0 0 Z " fill="#891F19" transform="translate(230.3125,193.5625)"/>
<path d="M0 0 C5.39421689 3.64446132 9.10506873 9.05594703 11.66015625 15 C11.33015625 15.66 11.00015625 16.32 10.66015625 17 C8.59765625 17.625 8.59765625 17.625 6.66015625 18 C6.66015625 18.99 6.66015625 19.98 6.66015625 21 C8.64015625 21 10.62015625 21 12.66015625 21 C12.71433951 23.08304538 12.75303176 25.16649768 12.78515625 27.25 C12.80835938 28.41015625 12.8315625 29.5703125 12.85546875 30.765625 C12.67055115 33.82786046 12.26838648 35.44202751 10.66015625 38 C9.67015625 37.67 8.68015625 37.34 7.66015625 37 C7.33015625 36.34 7.00015625 35.68 6.66015625 35 C6.16515625 35.99 6.16515625 35.99 5.66015625 37 C4.67015625 37 3.68015625 37 2.66015625 37 C2.47839844 35.78183594 2.29664063 34.56367188 2.109375 33.30859375 C1.85595368 31.68482008 1.60202015 30.06112629 1.34765625 28.4375 C1.22970703 27.63763672 1.11175781 26.83777344 0.99023438 26.01367188 C0.17861536 20.91503957 -0.94523397 16.5941032 -3.33984375 12 C-6.086789 9.73857742 -6.086789 9.73857742 -8.83984375 10.125 C-11.979531 11.22389054 -12.73684127 12.09932885 -14.33984375 15 C-16.51676356 21.1465971 -17.34785831 27.57320068 -18.33984375 34 C-19.65984375 34 -20.97984375 34 -22.33984375 34 C-22.99984375 32.35 -23.65984375 30.7 -24.33984375 29 C-24.66984375 29.66 -24.99984375 30.32 -25.33984375 31 C-26.65984375 30.67 -27.97984375 30.34 -29.33984375 30 C-29.93578661 20.36559046 -28.69592509 13.32343937 -23.52734375 5.125 C-17.00932892 -1.20678583 -8.73767509 -3.73429854 0 0 Z " fill="#891F19" transform="translate(299.33984375,193)"/>
<path d="M0 0 C-3.06968709 2.04645806 -5.33694101 2.77770958 -8.875 3.7265625 C-10.02484375 4.0359375 -11.1746875 4.3453125 -12.359375 4.6640625 C-13.56078125 4.98117187 -14.7621875 5.29828125 -16 5.625 C-17.20140625 5.94984375 -18.4028125 6.2746875 -19.640625 6.609375 C-28.60044643 9 -28.60044643 9 -32 9 C-32.22260498 9.79116211 -32.44520996 10.58232422 -32.67456055 11.39746094 C-34 14 -34 14 -36.30395508 15.04785156 C-37.26197021 15.2434668 -38.21998535 15.43908203 -39.20703125 15.640625 C-40.28936035 15.87072266 -41.37168945 16.10082031 -42.48681641 16.33789062 C-43.64616699 16.55638672 -44.80551758 16.77488281 -46 17 C-47.15032715 17.22365234 -48.3006543 17.44730469 -49.48583984 17.67773438 C-53.21659355 18.38642021 -56.95179528 19.06793626 -60.6875 19.75 C-73.89900143 22.2045358 -86.76232678 25.43721644 -99.62939453 29.33911133 C-102.07035806 30.01961476 -104.51006292 30.53351746 -107 31 C-107 31.99 -107 32.98 -107 34 C-109.78601223 34.92867074 -111.61066089 35.16342217 -114.5 35.1875 C-115.2734375 35.20167969 -116.046875 35.21585937 -116.84375 35.23046875 C-119 35 -119 35 -122 33 C-121.9375 30.25 -121.9375 30.25 -121 27 C-116.31170603 23.8342124 -111.88125211 22.18007887 -106.34375 21.02734375 C-105.24927551 20.78479103 -105.24927551 20.78479103 -104.13269043 20.53733826 C-101.75739043 20.01384905 -99.37888871 19.50690484 -97 19 C-95.36305376 18.64182588 -93.72633721 18.28260049 -92.08984375 17.92236328 C-86.8971449 16.78392206 -81.69911893 15.67119665 -76.5 14.5625 C-75.58002228 14.36579712 -74.66004456 14.16909424 -73.71218872 13.96643066 C-60.14115635 11.06585971 -46.55827266 8.24825426 -32.93896484 5.58251953 C-29.66068335 4.93274551 -26.38692463 4.26258497 -23.11328125 3.58984375 C-21.96609619 3.35555664 -20.81891113 3.12126953 -19.63696289 2.87988281 C-17.44139095 2.43105112 -15.2465164 1.9787889 -13.05249023 1.52246094 C-11.58017944 1.2232373 -11.58017944 1.2232373 -10.078125 0.91796875 C-9.21606445 0.74031982 -8.35400391 0.5626709 -7.46582031 0.37963867 C-4.93784295 -0.00956972 -2.5535595 -0.06712377 0 0 Z " fill="#B8ADBE" transform="translate(309,382)"/>
<path d="M0 0 C0 2.31 0 4.62 0 7 C-8.77649247 9.05849213 -17.57335786 11.00633825 -26.39068222 12.88117218 C-28.56800412 13.34424985 -30.74499078 13.80887699 -32.92190552 14.27386475 C-39.10357921 15.59400832 -45.28577662 16.9116893 -51.46826172 18.22802734 C-55.26356214 19.03624976 -59.05853467 19.8459956 -62.8532486 20.65696716 C-64.35955106 20.97876692 -65.86593409 21.30018975 -67.37239838 21.62123108 C-75.61741945 23.37951013 -83.85012299 25.17891016 -92.06347656 27.08007812 C-92.78720774 27.24688457 -93.51093891 27.41369102 -94.25660133 27.58555222 C-97.69096572 28.37767813 -101.12305501 29.17783644 -104.55197144 29.9932251 C-105.75443512 30.27228699 -106.9568988 30.55134888 -108.19580078 30.83886719 C-109.24889435 31.08803894 -110.30198792 31.33721069 -111.38699341 31.59393311 C-114 32 -114 32 -117 31 C-117 28.36 -117 25.72 -117 23 C-115.55947266 22.76047607 -115.55947266 22.76047607 -114.08984375 22.51611328 C-85.56510926 17.7487593 -57.27736383 12.05291802 -29 6 C-27.59057931 5.69879719 -26.18115573 5.39760787 -24.77172852 5.09643555 C-20.04864847 4.08580102 -15.32638204 3.07148857 -10.60546875 2.05078125 C-9.47753906 1.80714844 -8.34960938 1.56351562 -7.1875 1.3125 C-6.02605469 1.06113281 -4.86460937 0.80976563 -3.66796875 0.55078125 C-1 0 -1 0 0 0 Z " fill="#887894" transform="translate(312,367)"/>
<path d="M0 0 C38.115 0.495 38.115 0.495 77 1 C74.30090728 2.79939515 73.13083495 3.34927068 70.10888672 3.95800781 C69.32809753 4.11887375 68.54730835 4.27973969 67.74285889 4.44548035 C66.89701233 4.61300308 66.05116577 4.78052582 65.1796875 4.953125 C64.29613586 5.13406204 63.41258423 5.31499908 62.5022583 5.50141907 C60.60868304 5.88890316 58.71453623 6.27360264 56.81988525 6.65579224 C51.91348306 7.64578744 47.01110888 8.65514267 42.109375 9.66796875 C41.14536774 9.86700302 40.18136047 10.06603729 39.18814087 10.27110291 C30.45678379 12.08715983 21.78917211 14.1151029 13.14794922 16.32324219 C12.2560791 16.54786133 11.36420898 16.77248047 10.4453125 17.00390625 C9.69781738 17.19799072 8.95032227 17.3920752 8.18017578 17.59204102 C5.74688736 18.04736296 3.47001233 18.06919942 1 18 C0 14 0 14 0 0 Z " fill="#897A96" transform="translate(195,346)"/>
<path d="M0 0 C0 2.25 0 2.25 -1 5 C-6.40118342 8.91719709 -12.55265301 9.87915691 -19.015625 10.67578125 C-19.97296036 10.80653549 -20.93029572 10.93728973 -21.91664124 11.07200623 C-23.96528908 11.35148782 -26.01472747 11.62522531 -28.06484985 11.89367676 C-33.46353774 12.60356353 -38.85496135 13.36401205 -44.24609375 14.12890625 C-45.32710861 14.28201263 -46.40812347 14.43511902 -47.52189636 14.59286499 C-57.50906729 16.03025586 -67.4151291 17.79356459 -77.3125 19.75 C-78.04223022 19.89257233 -78.77196045 20.03514465 -79.52380371 20.18203735 C-84.0286118 21.06641095 -88.51686244 22.01045189 -93 23 C-94.10045654 23.23243408 -95.20091309 23.46486816 -96.3347168 23.7043457 C-97.32769775 23.93726318 -98.32067871 24.17018066 -99.34375 24.41015625 C-100.62475586 24.70224976 -100.62475586 24.70224976 -101.93164062 25.00024414 C-104.72812889 26.35194615 -105.18410112 27.81228058 -106.1875 30.6875 C-106.50410033 32.11561805 -106.79058101 33.55227743 -107 35 C-109.29141286 35.05384521 -111.58318188 35.09272087 -113.875 35.125 C-115.15117187 35.14820313 -116.42734375 35.17140625 -117.7421875 35.1953125 C-121 35 -121 35 -123 33 C-123 30.625 -123 30.625 -122 28 C-117.73370435 24.66225576 -113.90209604 23.18186668 -108.65625 21.96484375 C-107.96164673 21.80128891 -107.26704346 21.63773407 -106.5513916 21.46922302 C-104.37101186 20.96252088 -102.18701448 20.47719911 -100 20 C-99.31728027 19.85089172 -98.63456055 19.70178345 -97.93115234 19.54815674 C-93.83911708 18.66413432 -89.73969768 17.81978937 -85.63577271 16.9928894 C-83.4256772 16.54752287 -81.21653548 16.09765662 -79.00756836 15.64672852 C-76.03772124 15.04073664 -73.06759804 14.43613564 -70.09716797 13.83300781 C-64.58320039 12.71280597 -59.07175689 11.58064734 -53.5625 10.4375 C-52.62825195 10.24381836 -51.69400391 10.05013672 -50.73144531 9.85058594 C-41.94372449 8.01439091 -33.18381352 6.05390909 -24.43188477 4.05444336 C-6.48627994 0 -6.48627994 0 0 0 Z " fill="#B8ADBE" transform="translate(310,347)"/>
<path d="M0 0 C0.7670562 13.25302659 -0.15092269 29.38110722 -9 40 C-11.34978498 41.38330422 -12.69615574 41.98441824 -15.4375 42.125 C-19.48055979 40.34999814 -21.05696158 36.84123749 -23 33 C-24.2062252 29.38132441 -24.10816918 26.07493749 -24.0625 22.3125 C-24.05798828 21.61060547 -24.05347656 20.90871094 -24.04882812 20.18554688 C-24.03706927 18.45699462 -24.01913454 16.72848635 -24 15 C-23.01 14.50371094 -22.02 14.00742187 -21 13.49609375 C-14.14921714 9.99354215 -7.89729475 6.65798279 -2.3203125 1.25 C-1 0 -1 0 0 0 Z " fill="#B8AEBF" transform="translate(305,458)"/>
<path d="M0 0 C0.44988281 0.3403125 0.89976562 0.680625 1.36328125 1.03125 C7.192212 5.4233902 13.08913804 9.7189713 19 14 C15.33256905 22.07540084 7.82222264 27.25237565 0 31 C-4.44587629 32.24484536 -4.44587629 32.24484536 -7.6875 30.8125 C-10.16154297 28.87338524 -11.08926134 27.98059925 -12 25 C-12.84992546 17.63397939 -10.24884907 12.999896 -5.953125 7.26953125 C-4.00171647 4.81643081 -2.02204842 2.39504764 0 0 Z " fill="#B8AFC0" transform="translate(201,453)"/>
<path d="M0 0 C0.66 0 1.32 0 2 0 C2.14492719 3.93711437 2.23394537 7.87354625 2.3125 11.8125 C2.35439453 12.93205078 2.39628906 14.05160156 2.43945312 15.20507812 C2.45556641 16.27822266 2.47167969 17.35136719 2.48828125 18.45703125 C2.51446533 19.44678955 2.54064941 20.43654785 2.56762695 21.45629883 C2 24 2 24 -0.44848633 25.73706055 C-1.7114856 26.36221558 -1.7114856 26.36221558 -3 27 C-5.56632517 30.42176689 -5.36435051 33.84640421 -5 38 C-3.14065292 42.18353093 -2.24180013 42.87909994 2 45 C2 49.29 2 53.58 2 58 C-6.10555391 53.13666765 -12.43889422 45.24225128 -15 36 C-16.82150571 25.50465756 -11.95434603 16.59258616 -6.16943359 8.17089844 C-4.18584629 5.36289827 -2.20672446 2.64025794 0 0 Z " fill="#B7ABBD" transform="translate(187,344)"/>
<path d="M0 0 C5.33991575 4.74659178 9.34305814 10.88523837 10.2734375 18.12890625 C10.59920067 25.93469292 8.41815531 31.98146613 3.33203125 37.9609375 C1.94426003 39.36519056 0.47939569 40.69262706 -1 42 C-1.66 41.67 -2.32 41.34 -3 41 C-2.649375 40.319375 -2.29875 39.63875 -1.9375 38.9375 C-0.72202678 35.12901724 -0.96742975 32.85492894 -2 29 C-4.83802964 25.54834233 -6.97102744 24.01448628 -11 22 C-11 18.7 -11 15.4 -11 12 C-10.071875 11.5875 -9.14375 11.175 -8.1875 10.75 C-3.34972642 8.09396745 -1.83879869 5.0920579 0 0 Z " fill="#A59AB2" transform="translate(331,352)"/>
<path d="M0 0 C4.875 0.875 4.875 0.875 6 2 C6.4381099 7.47637377 5.59629067 11.16552771 3 16 C-0.32194987 19.83301908 -3.24266374 22.5612279 -8.33203125 23.37109375 C-13.42726355 23.50750154 -17.42209193 23.2770634 -21.45703125 19.9609375 C-24.85263789 15.64550831 -26.70277534 10.29024432 -28 5 C-27.625 2.59765625 -27.625 2.59765625 -27 1 C-24.6953125 1.16015625 -24.6953125 1.16015625 -22 2 C-20.3046875 4.43359375 -20.3046875 4.43359375 -18.875 7.4375 C-16.7751434 11.90655777 -16.7751434 11.90655777 -13 15 C-9.45421315 15.16025399 -9.45421315 15.16025399 -6 14 C-4.08293867 11.42011272 -4.08293867 11.42011272 -3 8 C-2.72285156 7.28199219 -2.44570313 6.56398438 -2.16015625 5.82421875 C-1.41546167 3.89213096 -0.70492955 1.94694827 0 0 Z " fill="#891F18" transform="translate(268,255)"/>
<path d="M0 0 C1.77049689 -0.05410687 3.54146849 -0.09284119 5.3125 -0.125 C6.29863281 -0.14820313 7.28476562 -0.17140625 8.30078125 -0.1953125 C11 0 11 0 14 2 C13.125 8.875 13.125 8.875 12 10 C10.62235483 10.32960553 9.23261728 10.60887004 7.83984375 10.8671875 C3.54747088 11.69096851 -0.72555314 12.5770908 -4.99609375 13.5078125 C-6.82237305 13.90419922 -6.82237305 13.90419922 -8.68554688 14.30859375 C-11.21458031 14.85889879 -13.74321895 15.41102096 -16.27148438 15.96484375 C-18.08422852 16.35736328 -18.08422852 16.35736328 -19.93359375 16.7578125 C-21.02728271 16.9964502 -22.12097168 17.23508789 -23.24780273 17.48095703 C-26 18 -26 18 -29 18 C-28.125 13.25 -28.125 13.25 -27 11 C-25.03808594 10.4375 -25.03808594 10.4375 -22.484375 10 C-21.56269531 9.835 -20.64101563 9.67 -19.69140625 9.5 C-18.72074219 9.335 -17.75007813 9.17 -16.75 9 C-14.84812227 8.67147051 -12.94704312 8.33827749 -11.046875 8 C-10.19963867 7.855625 -9.35240234 7.71125 -8.47949219 7.5625 C-5.80383305 6.95549738 -3.46315676 6.21382299 -1 5 C-0.10613836 2.45224694 -0.10613836 2.45224694 0 0 Z " fill="#897C98" transform="translate(310,347)"/>
<path d="M0 0 C0.33 0 0.66 0 1 0 C1.768208 13.27292713 0.8372537 29.34997631 -8 40 C-9.485 40.495 -9.485 40.495 -11 41 C-13.34482759 33.96551724 -13.34482759 33.96551724 -11.75 29.5 C-11.1725 28.345 -10.595 27.19 -10 26 C-8.18692089 20.62590324 -7.60989712 15.6564917 -8 10 C-8.66 9.34 -9.32 8.68 -10 8 C-9.36191406 7.50628906 -8.72382813 7.01257813 -8.06640625 6.50390625 C-7.24011719 5.86324219 -6.41382813 5.22257812 -5.5625 4.5625 C-4.73878906 3.92441406 -3.91507812 3.28632813 -3.06640625 2.62890625 C-1.12498733 1.16417803 -1.12498733 1.16417803 0 0 Z " fill="#8A7C98" transform="translate(304,458)"/>
<path d="M0 0 C0.33 0 0.66 0 1 0 C1.33 5.28 1.66 10.56 2 16 C0.35 16.99 -1.3 17.98 -3 19 C-5.56632517 22.42176689 -5.36435051 25.84640421 -5 30 C-3.14065292 34.18353093 -2.24180013 34.87909994 2 37 C2 41.29 2 45.58 2 50 C-2.22999501 47.46200299 -3.68700747 46.53703591 -6.3125 42.8125 C-6.82425781 42.09707031 -7.33601562 41.38164062 -7.86328125 40.64453125 C-8.42595703 39.83048828 -8.42595703 39.83048828 -9 39 C-8.34 39 -7.68 39 -7 39 C-7.33 38.236875 -7.66 37.47375 -8 36.6875 C-11.68166468 23.11136149 -6.28232901 11.83273619 0 0 Z " fill="#A296AE" transform="translate(187,352)"/>
<path d="M0 0 C-3.18434828 3.80012503 -5.56015868 4.6679338 -10.40625 5.45703125 C-12.33863525 5.78997192 -12.33863525 5.78997192 -14.31005859 6.12963867 C-14.99316101 6.24068939 -15.67626343 6.35174011 -16.38006592 6.46615601 C-19.99196191 7.05624911 -23.59360359 7.70255901 -27.1953125 8.3515625 C-27.92964508 8.48336411 -28.66397766 8.61516571 -29.42056274 8.7509613 C-36.81627995 10.10376205 -44.08886507 11.83490059 -51.375 13.6875 C-52.50099609 13.97278564 -53.62699219 14.25807129 -54.78710938 14.55200195 C-61.23971634 16.21626442 -67.63437382 18.0293476 -74 20 C-74 18.02 -74 16.04 -74 14 C-64.05817113 11.0565924 -54.21679884 9.41327953 -43.9375 8.125 C-32.27171063 6.64479687 -10.69600544 -3.20880163 0 0 Z " fill="#A49AB2" transform="translate(277,393)"/>
<path d="M0 0 C4 2.66666667 8 5.33333333 12 8 C8.33256905 16.07540084 0.82222264 21.25237565 -7 25 C-9.8046875 25.6640625 -9.8046875 25.6640625 -12 26 C-13 24 -13 24 -12.44921875 21.77734375 C-10.16836481 17.40621936 -6.61799297 14.29064378 -3.08007812 10.90429688 C-1.52414553 9.32215122 -0.16794513 7.88824382 1 6 C1.02493003 2.67484601 1.02493003 2.67484601 0 0 Z " fill="#897B97" transform="translate(208,459)"/>
<path d="M0 0 C2.38671875 -0.140625 2.38671875 -0.140625 5 0 C7.63560713 3.27178817 8 4.72068147 8 9 C8.6290625 9.06058594 9.258125 9.12117188 9.90625 9.18359375 C15.28323337 9.70995507 20.64215527 10.30546457 26 11 C26 11.66 26 12.32 26 13 C6.82604895 18.37587413 6.82604895 18.37587413 1 18 C-0.2039337 14.24600202 -0.09877617 10.66782588 -0.0625 6.75 C-0.05347656 5.48671875 -0.04445312 4.2234375 -0.03515625 2.921875 C-0.02355469 1.95765625 -0.01195312 0.9934375 0 0 Z " fill="#B7ABBB" transform="translate(195,346)"/>
<path d="M0 0 C5.29800385 4.70933676 9.6450213 11.05506411 10.16796875 18.33984375 C10.17441406 19.19707031 10.18085938 20.05429687 10.1875 20.9375 C10.20167969 21.79214844 10.21585937 22.64679688 10.23046875 23.52734375 C9.98703556 26.13909303 9.3178268 27.75500652 8 30 C6.68 29.67 5.36 29.34 4 29 C3.73445313 27.80761719 3.46890625 26.61523438 3.1953125 25.38671875 C2.83886783 23.82023825 2.48207903 22.25383602 2.125 20.6875 C1.95097656 19.90181641 1.77695312 19.11613281 1.59765625 18.30664062 C1.42363281 17.54931641 1.24960937 16.79199219 1.0703125 16.01171875 C0.91320801 15.31522217 0.75610352 14.61872559 0.59423828 13.90112305 C0.00486607 11.70265788 0.00486607 11.70265788 -2 9 C-1.46808511 2.93617021 -1.46808511 2.93617021 0 0 Z " fill="#B9AEBF" transform="translate(331,352)"/>
<path d="M0 0 C0.62529981 7.97257256 -1.42165884 15.84331768 -5 23 C-5.66 23 -6.32 23 -7 23 C-10.12892533 16.06194818 -10.66569599 9.56218722 -11 2 C-6.89657963 -0.38570952 -4.61380251 -1.49270081 0 0 Z " fill="#A499B1" transform="translate(297,468)"/>
<path d="M0 0 C9.24 0 18.48 0 28 0 C25.44073648 5.11852704 25.44073648 5.11852704 22 7 C18.5390625 7.43359375 18.5390625 7.43359375 14.625 7.4375 C12.69527344 7.46650391 12.69527344 7.46650391 10.7265625 7.49609375 C6.4459899 6.92624813 4.29331475 5.75106202 1 3 C0.67 2.01 0.34 1.02 0 0 Z " fill="#A498B0" transform="translate(240,475)"/>
<path d="M0 0 C2.0625 1.75 2.0625 1.75 4 4 C3.65450547 7.20845212 2.46330319 8.93336506 0.27734375 11.234375 C-0.52993164 12.09482422 -0.52993164 12.09482422 -1.35351562 12.97265625 C-1.91748047 13.55917969 -2.48144531 14.14570313 -3.0625 14.75 C-3.63033203 15.35199219 -4.19816406 15.95398438 -4.78320312 16.57421875 C-6.18231575 18.05563212 -7.59030947 19.5286488 -9 21 C-10.50418696 16.48743913 -8.80821692 13.26959204 -7 9 C-2.98971429 1.49485714 -2.98971429 1.49485714 0 0 Z " fill="#A49AB2" transform="translate(206,458)"/>
<path d="M0 0 C5.61 0.66 11.22 1.32 17 2 C17 2.66 17 3.32 17 4 C11.01955594 5.71951285 5.19240462 7.31195504 -1 8 C-0.67 5.36 -0.34 2.72 0 0 Z " fill="#A294AB" transform="translate(204,355)"/>
<path d="M0 0 C1.32 0.33 2.64 0.66 4 1 C4 5.29 4 9.58 4 14 C-0.89088091 11.06547145 -2.65896404 9.29561767 -6 5 C-5.01 4.34 -4.02 3.68 -3 3 C-2.525625 2.443125 -2.05125 1.88625 -1.5625 1.3125 C-1.046875 0.879375 -0.53125 0.44625 0 0 Z " fill="#887A96" transform="translate(185,388)"/>
<path d="M0 0 C0.66 0.33 1.32 0.66 2 1 C2.33 1.99 2.66 2.98 3 4 C3.99 4.66 4.98 5.32 6 6 C5.06558465 7.27310312 4.12732889 8.543388 3.1875 9.8125 C2.66542969 10.52019531 2.14335937 11.22789062 1.60546875 11.95703125 C0.16871123 13.78531393 -1.31815763 15.39896688 -3 17 C-3.66 16.67 -4.32 16.34 -5 16 C-4.649375 15.34 -4.29875 14.68 -3.9375 14 C-2.67146591 9.9486909 -3.29385518 7.16625445 -4 3 C-2.68 2.01 -1.36 1.02 0 0 Z " fill="#8A7B97" transform="translate(333,377)"/>
<path d="M0 0 C0 4.62 0 9.24 0 14 C-1.98 13.34 -3.96 12.68 -6 12 C-6 8.7 -6 5.4 -6 2 C-1.125 0 -1.125 0 0 0 Z " fill="#8D809C" transform="translate(326,362)"/>
<path d="M0 0 C9.24 0 18.48 0 28 0 C25.91100178 4.17799643 24.94455388 4.92391901 21 7 C20.34 5.35 19.68 3.7 19 2 C12.73 1.67 6.46 1.34 0 1 C0 0.67 0 0.34 0 0 Z " fill="#8C728A" transform="translate(240,475)"/>
<path d="M0 0 C-2.49974452 2.49974452 -3.76019549 2.4325511 -7.2265625 2.8515625 C-8.2578125 2.98046875 -9.2890625 3.109375 -10.3515625 3.2421875 C-11.43179688 3.36851562 -12.51203125 3.49484375 -13.625 3.625 C-14.71296875 3.7590625 -15.8009375 3.893125 -16.921875 4.03125 C-19.61374648 4.36183071 -22.30633778 4.68440069 -25 5 C-25.33 4.34 -25.66 3.68 -26 3 C-22.4192122 2.29876984 -18.8350783 1.6164242 -15.25 0.9375 C-13.72632813 0.63875977 -13.72632813 0.63875977 -12.171875 0.33398438 C-10.70234375 0.05844727 -10.70234375 0.05844727 -9.203125 -0.22265625 C-8.30239258 -0.39547119 -7.40166016 -0.56828613 -6.47363281 -0.74633789 C-3.9979814 -1.000207 -2.34682951 -0.7687064 0 0 Z " fill="#88677E" transform="translate(225,421)"/>
<path d="M0 0 C-3.50833002 2.33888668 -6.97485255 3.27040222 -11 4.3125 C-12.08667969 4.6228418 -12.08667969 4.6228418 -13.1953125 4.93945312 C-15.3125 5.48828125 -15.3125 5.48828125 -19 6 C-21 4.60546875 -21 4.60546875 -22 3 C-19.27172635 2.49465273 -16.54255306 1.99556155 -13.8125 1.5 C-13.04357422 1.35691406 -12.27464844 1.21382813 -11.48242188 1.06640625 C-7.60578227 0.36761285 -3.958529 -0.19039017 0 0 Z " fill="#B2A1B1" transform="translate(309,382)"/>
<path d="M0 0 C1.65 0.33 3.3 0.66 5 1 C4.67 2.65 4.34 4.3 4 6 C2.35 5.67 0.7 5.34 -1 5 C-0.67 3.35 -0.34 1.7 0 0 Z " fill="#EBE7F0" transform="translate(200,210)"/>
<path d="M0 0 C2.125 0.375 2.125 0.375 4 1 C4 2.65 4 4.3 4 6 C2.35 6 0.7 6 -1 6 C-1.625 4.125 -1.625 4.125 -2 2 C-1.34 1.34 -0.68 0.68 0 0 Z " fill="#E5DCE4" transform="translate(307,209)"/>
<path d="M0 0 C2.0625 0.4375 2.0625 0.4375 4 1 C4 2.65 4 4.3 4 6 C3.01 6 2.02 6 1 6 C0.34 4.35 -0.32 2.7 -1 1 C-0.67 0.67 -0.34 0.34 0 0 Z " fill="#F2EAF4" transform="translate(331,250)"/>
<path d="M0 0 C1.98 0.495 1.98 0.495 4 1 C3.34 2.65 2.68 4.3 2 6 C1.01 5.67 0.02 5.34 -1 5 C-0.67 3.35 -0.34 1.7 0 0 Z " fill="#F2ECF6" transform="translate(174,248)"/>
<path d="M0 0 C1.65 0 3.3 0 5 0 C5.33 1.32 5.66 2.64 6 4 C4.35 3.67 2.7 3.34 1 3 C0.67 2.01 0.34 1.02 0 0 Z " fill="#B8ACBC" transform="translate(241,476)"/>
</svg>
