<?xml version="1.0" encoding="UTF-8"?>
<svg version="1.1" xmlns="http://www.w3.org/2000/svg" width="1024" height="768">
<path d="M0 0 C337.92 0 675.84 0 1024 0 C1024 253.44 1024 506.88 1024 768 C686.08 768 348.16 768 0 768 C0 514.56 0 261.12 0 0 Z " fill="#000000" transform="translate(0,0)"/>
<path d="M0 0 C7.85088609 7.09569064 12.79215276 18.77120402 13.51171875 29.26171875 C13.03700484 37.96480704 8.84946241 45.76837031 2.5 51.5546875 C0.94921875 52.76171875 0.94921875 52.76171875 -1.05078125 53.76171875 C-1.05078125 54.42171875 -1.05078125 55.08171875 -1.05078125 55.76171875 C-0.5196875 56.0040625 0.01140625 56.24640625 0.55859375 56.49609375 C4.65700046 58.44059328 8.04446452 60.15982351 10.94921875 63.76171875 C11.96095673 66.79693269 12.11495389 68.95904954 12.13671875 72.13671875 C12.15089844 73.07257813 12.16507813 74.0084375 12.1796875 74.97265625 C11.92618584 78.04045606 11.51461669 80.10101233 9.94921875 82.76171875 C7.32421875 83.57421875 7.32421875 83.57421875 4.94921875 83.76171875 C4.46710938 83.19582031 3.985 82.62992187 3.48828125 82.046875 C2.85664062 81.31339844 2.225 80.57992187 1.57421875 79.82421875 C0.94773437 79.09332031 0.32125 78.36242187 -0.32421875 77.609375 C-2.45697072 75.32704088 -3.60733158 74.84618535 -6.67578125 74.26171875 C-11.85049955 75.02834368 -14.65414032 77.90810002 -18.05078125 81.76171875 C-19.67486972 84.29887131 -21.14231336 86.88921366 -22.609375 89.51953125 C-25.23528336 93.60427758 -28.47567955 95.23668485 -33.05078125 96.76171875 C-40.74848631 97.58186997 -45.96265404 96.72925906 -52.67578125 92.953125 C-57.72073086 90.42235258 -62.20462335 90.30827646 -67.61328125 91.63671875 C-77.42614003 96.7021528 -82.72074639 108.09877661 -86.19140625 118.0234375 C-88.88813899 129.75422492 -88.11106284 142.83871609 -83.05078125 153.76171875 C-82.64214844 154.65246094 -82.23351562 155.54320312 -81.8125 156.4609375 C-80.61907022 158.93277812 -79.36064349 161.34990891 -78.05078125 163.76171875 C-77.67566406 164.468125 -77.30054688 165.17453125 -76.9140625 165.90234375 C-75.12140129 169.44255256 -75.12140129 169.44255256 -72.05078125 171.76171875 C-72.24414062 171.19324219 -72.4375 170.62476563 -72.63671875 170.0390625 C-73.18130947 168.42416231 -73.7186285 166.806798 -74.25 165.1875 C-74.8907485 163.2465009 -75.55985682 161.31487239 -76.23828125 159.38671875 C-77.77523274 152.52955058 -78.23315161 146.26749759 -74.92578125 139.88671875 C-70.97058473 133.6650613 -66.11591658 130.11676386 -59.05078125 127.76171875 C-54.2884626 127.16642892 -50.8174152 127.68415652 -46.69921875 130.29296875 C-43.5290065 133.11761284 -41.35408699 136.73640467 -40.05078125 140.76171875 C-40.56941982 145.28035732 -40.56941982 145.28035732 -42.05078125 146.76171875 C-43.63337065 146.84084822 -45.21697888 146.90001779 -46.80078125 146.94921875 C-50.57814205 147.25867313 -50.57814205 147.25867313 -53.7890625 149.08984375 C-57.1557209 153.18147578 -58.41424193 156.19296789 -58.328125 161.484375 C-57.20473762 170.70880944 -50.70323987 178.80870385 -43.73828125 184.51171875 C-34.81250086 191.06425652 -23.26783642 195.31425234 -12.05078125 193.76171875 C-0.75225331 191.23176847 9.43948551 186.72444092 15.94921875 176.76171875 C21.42170464 166.32098687 23.47119532 156.52099038 21.94921875 144.76171875 C19.77918097 138.03314524 16.44600133 132.24593612 10.94921875 127.76171875 C10.33046875 127.18421875 9.71171875 126.60671875 9.07421875 126.01171875 C6.12883678 124.27914112 3.31443926 124.08529765 -0.05078125 123.76171875 C0.29855469 124.30441406 0.64789062 124.84710938 1.0078125 125.40625 C1.46285156 126.12167969 1.91789063 126.83710938 2.38671875 127.57421875 C2.83917969 128.28191406 3.29164063 128.98960937 3.7578125 129.71875 C6.11697911 133.76414062 6.41840888 137.14801584 5.94921875 141.76171875 C2.39940287 147.19084892 -1.2500339 149.95726609 -7.59765625 151.30078125 C-13.12459835 152.07943884 -17.39436053 152.08606287 -22.265625 149.1953125 C-27.16154411 145.26357877 -30.83860464 139.94381946 -32.05078125 133.76171875 C-32.86403514 125.8579075 -31.92887302 118.77714319 -28.05078125 111.76171875 C-23.85746629 106.67778823 -18.58213025 102.95021013 -12.05078125 101.76171875 C0.72177754 100.65309812 12.17494527 102.71271167 22.94921875 109.76171875 C23.81546875 110.31859375 24.68171875 110.87546875 25.57421875 111.44921875 C34.70339508 120.3381536 40.9287535 133.28961922 41.19921875 146.13671875 C40.96829867 161.65454788 36.14350451 175.30731078 25.34765625 186.515625 C11.99687116 199.01839606 -5.45977023 204.56744473 -23.5625 204.078125 C-43.48641952 203.01593076 -65.11144948 196.5955531 -79.05078125 181.76171875 C-95.64871602 161.5783828 -100.4346397 133.11614935 -98.05078125 107.76171875 C-97.14868981 102.39839457 -95.37563396 97.6834814 -93.05078125 92.76171875 C-92.62796875 91.7975 -92.20515625 90.83328125 -91.76953125 89.83984375 C-81.0108533 67.69698332 -57.2030046 54.12104832 -35.05078125 45.76171875 C-32.43498555 44.89880305 -29.80506208 44.08247014 -27.17578125 43.26171875 C-21.78322503 41.53901869 -17.72622584 39.62960286 -13.46875 35.8984375 C-12.05078125 34.76171875 -12.05078125 34.76171875 -10.05078125 34.76171875 C-9.64859375 33.92640625 -9.64859375 33.92640625 -9.23828125 33.07421875 C-8.05078125 30.76171875 -8.05078125 30.76171875 -6.48828125 28.63671875 C-4.40002429 24.46020483 -3.79109717 20.42075667 -4.05078125 15.76171875 C-5.51426728 12.57291268 -5.51426728 12.57291268 -8.05078125 10.76171875 C-9.37078125 10.76171875 -10.69078125 10.76171875 -12.05078125 10.76171875 C-12.18355469 11.39980469 -12.31632813 12.03789062 -12.453125 12.6953125 C-12.71802734 13.93474609 -12.71802734 13.93474609 -12.98828125 15.19921875 C-13.16230469 16.02292969 -13.33632813 16.84664062 -13.515625 17.6953125 C-14.05078125 19.76171875 -14.05078125 19.76171875 -15.05078125 20.76171875 C-19.79466107 20.89893841 -23.22489418 20.32332196 -27.17578125 17.63671875 C-29.05078125 14.76171875 -29.05078125 14.76171875 -29.11328125 11.32421875 C-27.13375522 4.6869844 -23.51152831 0.74351348 -18.05078125 -3.23828125 C-12.15739412 -5.98852858 -5.03723119 -3.45381863 0 0 Z " fill="#FBFBFB" transform="translate(616.05078125,222.23828125)"/>
<path d="M0 0 C4.60473424 4.08146898 7.39133605 8.04640699 8.3125 14.1875 C7.65584302 17.98151813 6.80732544 19.16634396 3.75 21.4375 C0.27674819 22.5952506 -2.61067448 22.50616652 -6.25 22.4375 C-6.91 19.4675 -7.57 16.4975 -8.25 13.4375 C-10.725 12.9425 -10.725 12.9425 -13.25 12.4375 C-15.91449255 14.99097203 -16.53322166 17.11441361 -16.6875 20.6875 C-16.39881651 27.73137713 -13.61775007 32.45257375 -8.5 37.1875 C-2.48325212 42.39527337 4.75503874 44.90613681 12.25 47.1875 C35.80156114 54.75006222 58.20163401 68.59292459 70.54296875 90.640625 C81.4593879 112.95863747 79.09841092 136.09658552 71.32104492 158.97119141 C65.61851948 174.88910022 57.25558899 187.57987713 42.10546875 195.875 C21.67735829 205.38750778 -2.77119739 209.19359225 -24.25 201.4375 C-38.49736555 195.68181216 -49.53870719 188.03800751 -56.50390625 173.890625 C-57.53883275 171.43124246 -58.43111537 168.97645384 -59.25 166.4375 C-59.47558594 165.75558594 -59.70117188 165.07367188 -59.93359375 164.37109375 C-63.52085753 151.33324538 -61.80626484 137.40838414 -55.7421875 125.46875 C-49.30773235 114.57506779 -41.25357534 108.34369142 -29.25 104.4375 C-20.42111999 102.17219526 -9.11245138 101.8864809 -1.0078125 106.30859375 C4.6923755 109.96938116 8.14866186 113.64409047 10.33984375 120.203125 C11.72879473 127.76960082 12.17583559 137.06924811 8.015625 143.79296875 C4.23191814 148.70945205 1.06340314 152.14905038 -5.25 153.4375 C-11.59335056 154.16942507 -16.70136981 152.37103666 -22.25 149.4375 C-24.95346941 147.18460882 -26.00467057 145.82335028 -26.6171875 142.36328125 C-26.95220118 136.55966184 -25.48053676 133.18828935 -22.25 128.4375 C-21.59 127.4475 -20.93 126.4575 -20.25 125.4375 C-27.02200468 126.32814914 -31.90345578 127.99135271 -36.25 133.4375 C-42.16698355 143.54846285 -45.00584635 152.1354004 -42.53125 163.8359375 C-40.64110064 170.37524456 -38.27788251 175.95328212 -34.25 181.4375 C-33.693125 182.30375 -33.13625 183.17 -32.5625 184.0625 C-25.13488515 191.69086119 -14.7703415 195.28866557 -4.25 195.8125 C9.12600145 195.14785397 20.75860785 189.40043229 29.87109375 179.75 C34.95325614 173.4950309 37.10131662 166.93511303 37.04296875 158.953125 C36.59791194 155.13157053 35.25862627 153.31504189 32.75 150.4375 C29.65468901 148.8898445 26.3833237 148.99340549 22.96484375 148.71875 C20.75 148.4375 20.75 148.4375 19.75 147.4375 C19.00709675 142.36099446 20.48150747 139.3500437 23.26953125 135.2734375 C26.58059532 131.1673686 29.41913822 129.6092241 34.625 128.9375 C41.30000281 129.34435731 46.06339616 132.3859354 50.5625 137.1875 C54.91753254 142.58893624 57.11493046 147.29825655 56.6875 154.3125 C56.05694028 159.00183494 54.48133503 163.03535613 52.4921875 167.30859375 C51.45767404 169.57869145 51.45767404 169.57869145 52.75 172.4375 C62.24401309 156.26927685 69.6921468 141.24710809 66.1015625 121.953125 C62.90686042 110.53957399 56.5671009 99.50805193 46.4375 92.9375 C39.96694499 91.73367581 34.51793772 92.80204765 28.8125 96 C22.83766247 99.24106753 17.26201756 99.4741594 10.67578125 97.9609375 C4.23775184 95.6426883 1.27973929 90.273851 -2.1875 84.8125 C-5.38560801 79.96217251 -8.43909485 77.15517791 -14.1875 75.6875 C-18.44885349 76.73109677 -19.84686347 79.23451356 -22.50390625 82.58984375 C-24.25 84.4375 -24.25 84.4375 -27.6875 85.4375 C-28.533125 85.4375 -29.37875 85.4375 -30.25 85.4375 C-33.12822608 80.45412509 -33.42086484 75.10575521 -33.25 69.4375 C-32.04250306 65.16189763 -29.69190904 62.78020497 -26.1875 60.0625 C-23.25 58.4375 -23.25 58.4375 -20.25 57.4375 C-21.34644386 54.74622871 -22.45313713 53.23985306 -24.5625 51.1875 C-31.65749596 43.92750413 -33.68307647 37.25935331 -33.58984375 27.2109375 C-32.68852876 17.20323309 -27.28130098 7.49873159 -19.57421875 1.03125 C-13.12937339 -3.44655819 -6.94009348 -3.3365834 0 0 Z " fill="#FBFBFB" transform="translate(428.25,220.5625)"/>
<path d="M0 0 C6.40840542 5.82582311 13.73852458 12.99389507 15.125 21.91210938 C15.35963044 31.97922182 12.52248445 41.15615882 9.8125 50.75 C9.10458356 53.29627409 8.40115497 55.84366293 7.70347595 58.39276123 C7.2716689 59.9662705 6.8335933 61.538079 6.38795471 63.10772705 C1.03758313 82.39518054 3.27939156 101.14005274 10.61328125 119.5078125 C13.45792298 126.99576976 14.18547402 134.55206848 14.75 142.5 C16.4 142.83 18.05 143.16 19.75 143.5 C19.80994141 142.25476563 19.80994141 142.25476563 19.87109375 140.984375 C20.57363209 132.69268788 22.32368018 125.48424242 25.11303711 117.62817383 C32.68590889 96.23103854 32.5835429 78.04142296 26.52929688 56.34570312 C25.02787088 50.8630523 23.70066632 45.3397552 22.375 39.8125 C21.96290283 38.20000366 21.96290283 38.20000366 21.54248047 36.55493164 C19.6651742 28.75796649 18.86631032 21.88435597 22.09765625 14.36328125 C26.29967251 8.11290171 30.85195735 1.94902133 37.75 -1.5 C43.40931401 -2.1311118 48.32779743 -2.0698832 53.14453125 1.16796875 C57.12822602 4.47317536 60.30229819 7.46499177 61.4375 12.625 C60.25747842 17.55963571 56.82163866 19.78557422 52.75 22.5 C50.3125 22.5625 50.3125 22.5625 47.75 21.5 C46.62039724 19.75657536 45.72439493 17.9495155 44.78515625 16.09765625 C43.79168418 14.23350951 43.79168418 14.23350951 41.1875 13.4375 C38.48740376 13.28998225 38.48740376 13.28998225 35.75 15.5 C35.14710532 19.9786462 35.48088798 23.092652 38.20703125 26.7734375 C41.07969195 29.98790846 44.24693246 32.91445634 47.41015625 35.83984375 C52.34971658 41.45560433 53.19277128 46.78335867 52.9375 53.9375 C52.91719727 55.03481445 52.91719727 55.03481445 52.89648438 56.15429688 C52.86153874 57.93652422 52.80774805 59.71836573 52.75 61.5 C53.41 61.5 54.07 61.5 54.75 61.5 C56.12605634 59.8759778 56.12605634 59.8759778 57.5 57.8125 C61.25271686 52.70010312 64.20549417 49.26335175 70.5 47.375 C75.92474786 46.99944053 80.33613351 49.59121519 84.75 52.5 C87.8885647 55.41438151 88.67776934 56.5429437 89 60.8125 C88.9175 61.699375 88.835 62.58625 88.75 63.5 C86.48030385 64.63484807 84.95757139 64.66426051 82.4375 64.8125 C78.11330104 65.26438574 75.76743385 66.20825398 72.75 69.5 C70.86642366 73.30195032 70.53897347 76.2570144 70.66015625 80.47265625 C70.68013672 81.62056641 70.70011719 82.76847656 70.72070312 83.95117188 C70.78120907 86.33150154 70.84620712 88.71172187 70.91601562 91.09179688 C71.12633702 104.1099661 68.97319642 114.8225145 59.88671875 124.48046875 C55.34158873 128.76881177 50.3520064 132.12437174 45.125 135.5 C33.62744461 142.99569857 27.97750731 151.35936952 24.5 164.8125 C23.42540844 170.21530755 23.31562379 175.7508113 23.09375 181.2421875 C22.75 184.5 22.75 184.5 20.75 187.5 C17.8125 187.9375 17.8125 187.9375 14.75 187.5 C12.16648457 185.07416392 11.76316131 183.62177677 11.37890625 180.06640625 C11.34894984 178.73192347 11.32723185 177.39723767 11.3125 176.0625 C10.78446885 162.46995617 6.71395944 149.7751104 -3.4375 140.3125 C-7.57556147 136.84321614 -12.02798306 134.04409989 -16.609375 131.203125 C-26.02526461 125.13015478 -32.15478441 117.36524645 -35.25 106.5 C-35.45059736 103.97411073 -35.5576803 101.43983538 -35.59375 98.90625 C-35.6083728 98.19650024 -35.62299561 97.48675049 -35.63806152 96.75549316 C-35.69980643 93.74455996 -35.7397807 90.73343126 -35.78173828 87.72216797 C-35.81567454 85.51248741 -35.86072888 83.30321749 -35.90625 81.09375 C-35.93428711 79.12438477 -35.93428711 79.12438477 -35.96289062 77.11523438 C-36.24644797 73.54472657 -36.81436885 70.77618391 -38.25 67.5 C-41.60592178 65.82203911 -44.82053587 65.40808602 -48.5 65 C-52.25 64.5 -52.25 64.5 -54.25 62.5 C-54.40823178 59.09801665 -53.85118669 57.17249023 -51.5703125 54.62109375 C-46.66102519 50.18420956 -43.167391 47.45294531 -36.375 47.5625 C-30.10091873 48.59045682 -26.02220283 52.196074 -22.3125 57.1875 C-20.25 60.5 -20.25 60.5 -20.25 62.5 C-19.26 62.5 -18.27 62.5 -17.25 62.5 C-17.38019531 61.46101563 -17.51039063 60.42203125 -17.64453125 59.3515625 C-18.58350551 50.58815359 -18.96862181 43.77064861 -13.25 36.5 C-10.47360358 33.52386283 -7.65867054 30.71427333 -4.67578125 27.9453125 C-2.5217681 25.77395625 -1.21519666 24.3663416 -0.25 21.5 C-0.56126713 17.81796085 -0.56126713 17.81796085 -1.25 14.5 C-4.10078091 13.73283149 -4.10078091 13.73283149 -7.25 13.5 C-10.42625833 15.57678429 -12.22021208 19.35032909 -14.25 22.5 C-19.116909 22.04726428 -21.6919325 20.85474936 -25.25 17.5 C-26.75889469 14.48221063 -26.75026276 12.87677363 -26.25 9.5 C-19.93430856 0.08873022 -11.1105004 -5.12792326 0 0 Z " fill="#FBFBFB" transform="translate(494.25,130.5)"/>
<path d="M0 0 C1.63016202 3.00057296 2.10015771 5.44048954 2.5546875 8.81640625 C3.01150753 12.08226872 3.9442653 14.54893348 5.25 17.5625 C7.01823477 22.2978863 7.08093444 25.59188665 6.36328125 30.54296875 C5.84998238 35.42758706 5.90966721 40.27992452 5.9375 45.1875 C5.94168945 46.14575684 5.94587891 47.10401367 5.95019531 48.09130859 C5.96268197 50.39426443 5.97915499 52.69710691 6 55 C5.46745605 55.24089355 4.93491211 55.48178711 4.38623047 55.72998047 C0.19658466 57.70792075 -2.94065963 59.4325047 -5.875 63.125 C-6.42929687 63.80820312 -6.98359375 64.49140625 -7.5546875 65.1953125 C-8.27011719 66.08863281 -8.27011719 66.08863281 -9 67 C-9.66 67.66 -10.32 68.32 -11 69 C-13.35449219 68.56323242 -13.35449219 68.56323242 -16.296875 67.66796875 C-22.99261231 65.85395624 -29.34029648 65.45526247 -36.25 65.3125 C-37.38824219 65.27833984 -38.52648437 65.24417969 -39.69921875 65.20898438 C-42.46604702 65.12760707 -45.2326023 65.05810893 -48 65 C-47.36010132 64.05096802 -47.36010132 64.05096802 -46.70727539 63.08276367 C-41.46881393 54.93022159 -40.83674291 49.6791769 -42 40 C-42.77085416 37.40561986 -43.71858142 35.3956956 -45 33 C-44.67 32.34 -44.34 31.68 -44 31 C-43.73247475 27.40178538 -43.76841504 23.7945459 -43.75 20.1875 C-43.729375 19.18912109 -43.70875 18.19074219 -43.6875 17.16210938 C-43.57884755 10.05666951 -43.57884755 10.05666951 -47 4 C-48.54825493 2.44820838 -48.54825493 2.44820838 -50.1875 1.25 C-51.115625 0.5075 -52.04375 -0.235 -53 -1 C-53 -1.33 -53 -1.66 -53 -2 C-48.89293423 -2.43317159 -44.78527397 -2.86015644 -40.67700195 -3.28173828 C-39.28327642 -3.42560049 -37.88971577 -3.57107044 -36.49633789 -3.71826172 C-10.35124385 -6.47630178 -10.35124385 -6.47630178 0 0 Z " fill="#F8F8F8" transform="translate(402,464)"/>
<path d="M0 0 C1.52767563 2.29151344 2.99364025 4.59403916 4.4375 6.9375 C6.17514667 9.7290448 7.95646605 12.41869395 10 15 C9.51539307 15.68682861 9.03078613 16.37365723 8.53149414 17.08129883 C5.94329744 22.01384969 6.44211635 27.16997815 6.4440918 32.64526367 C6.43756982 34.66586956 6.38317337 36.68144342 6.32617188 38.70117188 C6.28725691 47.41380119 7.58364222 53.09018002 13 60 C13.99 59.67 14.98 59.34 16 59 C16.96656571 56.36521166 17.18335262 53.71155465 17.38891602 50.92504883 C17.4788961 49.73779961 17.4788961 49.73779961 17.57069397 48.52656555 C17.66138405 47.25464607 17.66138405 47.25464607 17.75390625 45.95703125 C17.81907944 45.07399826 17.88425262 44.19096527 17.95140076 43.28117371 C18.08838176 41.41275362 18.22359823 39.54420346 18.35717773 37.67553711 C18.56053237 34.83993683 18.77105985 32.00493521 18.98242188 29.16992188 C19.11501746 27.34898989 19.24719221 25.52802721 19.37890625 23.70703125 C19.44139053 22.86920609 19.50387482 22.03138092 19.56825256 21.16816711 C20.51775429 11.46304573 20.51775429 11.46304573 19 2 C26.92 2 34.84 2 43 2 C41.02 4.31 39.04 6.62 37 9 C33.28807965 17.28995545 33.173611 25.4787759 34.6875 34.375 C35 38 35 38 33.5 40.625 C31.76579495 44.52696136 31.95544051 46.86904597 32.19311523 51.03222656 C32.68852596 61.79145327 32.68852596 61.79145327 29.39550781 66.09863281 C25.06805374 70.13633013 20.15798849 73.13897369 15 76 C11.09292858 74.2279988 9.37741712 72.20325333 6.875 68.6875 C6.19179688 67.74261719 5.50859375 66.79773438 4.8046875 65.82421875 C3.16206003 63.25361342 2.01310591 60.86698528 1 58 C-2.67768297 61.34028087 -5.14403432 65.07366412 -7.75 69.25 C-8.36681641 70.22453125 -8.36681641 70.22453125 -8.99609375 71.21875 C-10.00205086 72.8095659 -11.00167362 74.40438433 -12 76 C-12.75023437 75.61714844 -12.75023437 75.61714844 -13.515625 75.2265625 C-15.53281714 74.23065317 -17.59711333 73.33057165 -19.671875 72.4609375 C-24.11165292 70.32390431 -28.12373423 68.10290853 -31 64 C-32.75984467 57.26726094 -31.59595884 50.04814285 -31.11279297 43.19238281 C-30.93240461 38.0868456 -31.56583983 33.16713172 -32.3125 28.125 C-32.43141602 27.25327148 -32.55033203 26.38154297 -32.67285156 25.48339844 C-33.56936157 19.46265038 -35.13919 13.78796196 -37 8 C-37.350625 6.824375 -37.70125 5.64875 -38.0625 4.4375 C-38.74447332 1.84681777 -38.74447332 1.84681777 -41 1 C-30.44191344 1.59453303 -30.44191344 1.59453303 -26 5 C-25.4225 4.505 -24.845 4.01 -24.25 3.5 C-22 2 -22 2 -18 2 C-18.01047363 2.55945313 -18.02094727 3.11890625 -18.03173828 3.6953125 C-18.23022283 16.19732643 -18.03492994 28.67175243 -17.36322021 41.15649414 C-17.28783435 42.59203617 -17.21900959 44.027938 -17.15679932 45.46411133 C-17.06647333 47.49394844 -16.94786228 49.52246656 -16.828125 51.55078125 C-16.7652832 52.72294189 -16.70244141 53.89510254 -16.63769531 55.1027832 C-16.26224087 58.11927541 -16.26224087 58.11927541 -13.94824219 59.90307617 C-13.30532227 60.26506104 -12.66240234 60.6270459 -12 61 C-11.731875 60.278125 -11.46375 59.55625 -11.1875 58.8125 C-10 56 -10 56 -8.44848633 53.79492188 C-6.63887832 50.3031989 -6.58477472 47.30596255 -6.63671875 43.46875 C-6.63622025 42.75521362 -6.63572174 42.04167725 -6.63520813 41.30651855 C-6.63753988 39.80376387 -6.64721522 38.30100462 -6.66381836 36.79833984 C-6.68742654 34.50712913 -6.68437084 32.21708291 -6.67773438 29.92578125 C-6.68331157 28.46093061 -6.69042172 26.99608484 -6.69921875 25.53125 C-6.69830734 24.85090698 -6.69739594 24.17056396 -6.69645691 23.46960449 C-6.75444635 19.55070656 -7.2911574 16.53418753 -9 13 C-8.2575 12.34 -7.515 11.68 -6.75 11 C-3.53819246 7.82479426 -1.81524279 4.08683153 0 0 Z " fill="#F8F8F8" transform="translate(523,456)"/>
<path d="M0 0 C8.25 0.66 16.5 1.32 25 2 C24.38125 3.60875 23.7625 5.2175 23.125 6.875 C20.33603772 15.12320758 19.78705743 23.34236823 19 32 C26.26 32.33 33.52 32.66 41 33 C41 23.43 41 13.86 41 4 C47.93 4.33 54.86 4.66 62 5 C60.35 7.97 58.7 10.94 57 14 C56.03503275 17.859869 55.83363104 20.97754322 55.8125 24.9375 C55.79832031 26.14277344 55.78414062 27.34804688 55.76953125 28.58984375 C55.99209512 31.88303458 56.68037792 34.01765409 58 37 C57.75206237 40.14054328 56.94902244 42.09379872 55.4375 44.875 C52.4486821 51.51193387 53.00955691 60.63401142 55.01953125 67.46484375 C55.34308594 68.30144531 55.66664063 69.13804687 56 70 C55.43410156 70.33773437 54.86820313 70.67546875 54.28515625 71.0234375 C53.55167969 71.46945312 52.81820312 71.91546875 52.0625 72.375 C50.96615234 73.03628906 50.96615234 73.03628906 49.84765625 73.7109375 C47.86227728 74.8773984 47.86227728 74.8773984 47 77 C46.34 77 45.68 77 45 77 C43.780192 75.55549052 42.56322297 74.1067913 41.4140625 72.60546875 C39.78901119 70.76045193 38.00141377 69.41802294 36 68 C36.20496094 67.18917969 36.40992188 66.37835937 36.62109375 65.54296875 C38.37737376 58.32457388 39.5058557 51.41216443 40 44 C29.11 43.505 29.11 43.505 18 43 C18.12375 45.97 18.2475 48.94 18.375 52 C18.40899902 52.91910156 18.44299805 53.83820312 18.47802734 54.78515625 C18.5136377 55.53667969 18.54924805 56.28820312 18.5859375 57.0625 C18.63306885 58.19365234 18.63306885 58.19365234 18.68115234 59.34765625 C19.1148781 62.95561689 20.11864082 66.47456329 21 70 C12.75 69.34 4.5 68.68 -4 68 C-2.02 65.69 -0.04 63.38 2 61 C5.3500656 54.88981747 5.79686182 47.83024419 5 41 C4.34950796 39.32695418 3.6847164 37.6593329 3 36 C3.23909956 32.41350662 4.1806249 29.52043774 5.5625 26.25 C7.36998239 21.57392616 7.96925313 16.95200235 7 12 C4.73713384 9.55581103 4.73713384 9.55581103 2 8 C-0.00796384 4.94024557 0 3.85514114 0 0 Z " fill="#F9F9F9" transform="translate(670,462)"/>
<path d="M0 0 C10.1878131 1.85035067 10.1878131 1.85035067 13 5 C17.69858786 14.63210511 14.27623326 26.35807442 12.4375 36.375 C11.94754222 39.0480166 11.46875887 41.7222209 10.99609375 44.3984375 C10.78138428 45.57067871 10.5666748 46.74291992 10.34545898 47.95068359 C9.70165152 53.63347882 11.74843769 56.3848793 15 61 C19.29 60.34 23.58 59.68 28 59 C30.63016999 47.05495864 32.05749894 35.23216287 33.1875 23.0625 C33.36583364 21.20370848 33.54486586 19.34498384 33.72460938 17.48632812 C34.15777293 12.99161351 34.58155668 8.4961079 35 4 C36.95821126 4.5144755 38.91642253 5.02895101 40.87463379 5.54342651 C44.09756395 6.23577988 47.21444417 6.18818377 50.5 6.125 C52.34078125 6.09792969 52.34078125 6.09792969 54.21875 6.0703125 C55.1365625 6.04710937 56.054375 6.02390625 57 6 C53.808 14.056 53.808 14.056 51 16 C49.33975204 16.36395826 47.67303647 16.70027034 46 17 C46.1416533 19.87526069 46.28818532 22.75013536 46.4375 25.625 C46.47681641 26.43324219 46.51613281 27.24148438 46.55664062 28.07421875 C46.74289154 31.59865908 46.986208 34.92763355 47.6484375 38.40234375 C48.1698852 42.25526286 46.20615965 43.91137649 44 47 C42.08264279 52.17686447 41.37502208 56.55376385 42 62 C44.30302869 64.3091666 44.30302869 64.3091666 47 66 C49.0855699 69.07869842 49.06615749 71.34930943 49 75 C48.16082031 74.71125 47.32164062 74.4225 46.45703125 74.125 C33.74509335 70.20105775 20.11328529 69.35150396 7 72 C6.62488281 71.48050781 6.24976563 70.96101562 5.86328125 70.42578125 C5.35152344 69.72839844 4.83976563 69.03101563 4.3125 68.3125 C3.81363281 67.62800781 3.31476562 66.94351563 2.80078125 66.23828125 C1.03871661 63.85304117 1.03871661 63.85304117 -1.671875 62.03125 C-5.40436544 57.17149734 -4.68457211 52.13604082 -4.5625 46.1875 C-4.57345703 45.03701172 -4.58441406 43.88652344 -4.59570312 42.70117188 C-4.53492872 35.63108317 -3.65009576 31.05536117 0 25 C1.27132649 21.18602052 1.14512624 17.59657783 1.125 13.625 C1.12886719 12.86960937 1.13273438 12.11421875 1.13671875 11.3359375 C1.12987994 7.42414069 0.95875152 3.81978781 0 0 Z " fill="#F8F8F8" transform="translate(744,469)"/>
<path d="M0 0 C-0.25702474 4.3694206 -0.60023333 6.51822991 -3.4375 9.9375 C-6 12 -6 12 -8 12 C-7.57240071 14.35634505 -7.13324692 16.70957721 -6.6875 19.0625 C-6.51057617 20.04766602 -6.51057617 20.04766602 -6.33007812 21.05273438 C-5.66394108 24.5200631 -4.82072409 27.6246198 -3.37890625 30.85546875 C-2 34 -2 34 -2.25 36.25 C-2.4975 36.8275 -2.745 37.405 -3 38 C-3.86419223 40.59257669 -4.17580932 42.34037707 -4.31640625 45.01171875 C-4.37924805 46.14770508 -4.37924805 46.14770508 -4.44335938 47.30664062 C-4.48267578 48.09232422 -4.52199219 48.87800781 -4.5625 49.6875 C-4.62727539 50.88342773 -4.62727539 50.88342773 -4.69335938 52.10351562 C-4.79927368 54.06881447 -4.90012551 56.03438496 -5 58 C-4.23300781 58.10699219 -3.46601563 58.21398437 -2.67578125 58.32421875 C1.33350712 59.33678355 2.71597757 61.67185303 5 65 C5 66.32 5 67.64 5 69 C4.113125 68.835 3.22625 68.67 2.3125 68.5 C-10.68417782 66.72535323 -24.1773175 68.08865875 -36 74 C-36.42410156 73.55269531 -36.84820312 73.10539063 -37.28515625 72.64453125 C-37.87167969 72.03996094 -38.45820313 71.43539062 -39.0625 70.8125 C-39.69671875 70.15636719 -40.3309375 69.50023437 -40.984375 68.82421875 C-42.90281283 67.08795815 -44.50997439 66.23272766 -46.8125 65.125 C-49.90303218 63.09683825 -50.03789899 61.81742889 -50.8125 58.0859375 C-51.1888779 55.07165565 -51.41584483 52.06174764 -51.61328125 49.03125 C-51.84128623 45.66274779 -52.72422474 43.13144837 -54 40 C-53.7578125 38.03515625 -53.7578125 38.03515625 -53.125 36.0625 C-50.51223654 25.74896001 -51.35831192 16.48843065 -56 7 C-56.33 6.01 -56.66 5.02 -57 4 C-51.5029002 3.71566725 -47.56255984 3.55273257 -43 7 C-37.27666567 14.87127661 -37.2522062 23.29275379 -37.25 32.625 C-38.1971605 46.06133615 -38.1971605 46.06133615 -34.37109375 58.09375 C-33.73300781 58.5578125 -33.09492188 59.021875 -32.4375 59.5 C-31.79683594 59.9846875 -31.15617187 60.469375 -30.49609375 60.96875 C-30.00238281 61.3090625 -29.50867188 61.649375 -29 62 C-28.113125 61.525625 -27.22625 61.05125 -26.3125 60.5625 C-23.40447066 59.19078805 -21.12405205 58.54817268 -18 58 C-17.77817517 45.39809056 -18.45306294 32.99254722 -19.5 20.4375 C-19.64514971 18.63611743 -19.78968403 16.83468518 -19.93359375 15.03320312 C-20.28200437 10.68819916 -20.63861875 6.34394359 -21 2 C-19.96359375 1.93941406 -18.9271875 1.87882812 -17.859375 1.81640625 C-16.48957127 1.73196629 -15.11978025 1.64732003 -13.75 1.5625 C-13.06808594 1.52318359 -12.38617188 1.48386719 -11.68359375 1.44335938 C-7.755128 1.19544649 -3.87076415 0 0 0 Z " fill="#F8F8F8" transform="translate(343,464)"/>
<path d="M0 0 C3.96 0 7.92 0 12 0 C13.92949605 8.81310356 15.04620505 17.6787502 16.125 26.625 C16.3082467 28.1211363 16.4918379 29.61723044 16.67578125 31.11328125 C17.12115637 34.74171062 17.56188045 38.37068653 18 42 C18.11069824 41.18958252 18.22139648 40.37916504 18.33544922 39.54418945 C18.7558088 36.4706654 19.17715545 33.39727855 19.59912109 30.32397461 C19.86759727 28.3664744 20.13498594 26.40882514 20.40234375 24.45117188 C21.52406104 16.28756272 22.72630692 8.14130846 24 0 C28.29 0 32.58 0 37 0 C38.93792183 7.95246302 40.04597574 15.95383253 41.125 24.0625 C41.30824391 25.41866711 41.49183509 26.77478734 41.67578125 28.13085938 C42.12059361 31.4201297 42.56190576 34.70982933 43 38 C43.33 38 43.66 38 44 38 C45.65 25.46 47.3 12.92 49 0 C52.96 0 56.92 0 61 0 C59.35609873 12.22902167 57.47339363 24.40275321 55.375 36.5625 C55.15690674 37.82860107 54.93881348 39.09470215 54.71411133 40.39916992 C53.91660179 44.97562864 53.12708873 49.49164508 52 54 C46.72 54 41.44 54 36 54 C34.35 41.79 32.7 29.58 31 17 C28.51336584 31.01260131 28.51336584 31.01260131 26.3125 45.0625 C26.18294922 45.93970703 26.05339844 46.81691406 25.91992188 47.72070312 C25.61115022 49.81348878 25.3052286 51.90669466 25 54 C19.72 54 14.44 54 9 54 C7.71612758 46.6313918 6.4344335 39.26240935 5.15478516 31.89306641 C4.7188657 29.38449783 4.28234391 26.87603386 3.84521484 24.36767578 C3.21815333 20.76882612 2.59323644 17.16960977 1.96875 13.5703125 C1.77188599 12.44319855 1.57502197 11.31608459 1.37219238 10.15481567 C1.19200562 9.11388763 1.01181885 8.07295959 0.82617188 7.00048828 C0.66628784 6.08115509 0.50640381 5.1618219 0.3416748 4.21463013 C0 2 0 2 0 0 Z " fill="#F8F8F8" transform="translate(468,584)"/>
<path d="M0 0 C0.57621094 0.28875 1.15242187 0.5775 1.74609375 0.875 C2.86177734 1.431875 2.86177734 1.431875 4 2 C4.97646484 2.495 4.97646484 2.495 5.97265625 3 C11.85217264 5.81337607 17.5644313 7.08578837 24 8 C22.16723529 12.00810226 19.85906647 14.80832528 16 17 C8.42457968 18.4123665 3.33809318 14.91470461 -3 11 C-6.12821727 15.34522234 -6.6833896 19.1372749 -7.1875 24.3125 C-7.26935547 25.05306641 -7.35121094 25.79363281 -7.43554688 26.55664062 C-7.63442588 28.36994923 -7.81869827 30.18484969 -8 32 C-6.70964844 31.98839844 -5.41929687 31.97679687 -4.08984375 31.96484375 C-2.37239729 31.9554588 -0.65494925 31.94635936 1.0625 31.9375 C1.91005859 31.92912109 2.75761719 31.92074219 3.63085938 31.91210938 C8.5361722 31.89316994 13.16444755 32.16673655 18 33 C17.79503906 34.13953125 17.59007812 35.2790625 17.37890625 36.453125 C15.3321031 48.31042378 14.36735921 59.97848648 14 72 C12.80503906 72.07347656 12.80503906 72.07347656 11.5859375 72.1484375 C5.0072911 72.5222471 5.0072911 72.5222471 -1.25 74.375 C-4 75 -4 75 -5.74609375 74.15625 C-7.08654121 73.27160862 -8.4127315 72.36511502 -9.7265625 71.44140625 C-15.75250794 67.62083259 -23.14552643 65.82785962 -30 64 C-29.360625 62.989375 -28.72125 61.97875 -28.0625 60.9375 C-25.93151044 57.24780076 -25.34460387 54.22139745 -25 50 C-20.88263505 50.59105726 -17.96701896 52.93578326 -14.6875 55.3125 C-10.24320792 58.46794115 -5.80902353 61.4277316 -1 64 C-0.68063424 62.25123994 -0.37002651 60.50088083 -0.0625 58.75 C0.19853516 57.28820312 0.19853516 57.28820312 0.46484375 55.796875 C1.2032134 50.55822317 1.5606536 45.27215681 2 40 C-6.25 40 -14.5 40 -23 40 C-21 28 -21 28 -20 24 C-19.9063489 21.68902146 -19.87006324 19.37537008 -19.875 17.0625 C-19.87242187 15.85722656 -19.86984375 14.65195312 -19.8671875 13.41015625 C-19.98178199 10.46777408 -20.31737461 7.85510777 -21 5 C-20.13117187 5.03480469 -19.26234375 5.06960938 -18.3671875 5.10546875 C-9.729253 5.45895267 -9.729253 5.45895267 -2 2 C-1.34 1.34 -0.68 0.68 0 0 Z " fill="#F7F7F7" transform="translate(830,474)"/>
<path d="M0 0 C6.57045066 0.88448374 6.57045066 0.88448374 8.9609375 1.52734375 C14.50343966 2.8121 20.489323 2.13039528 26 1 C25.54726428 5.866909 24.35474936 8.4419325 21 12 C18.20518141 13.3974093 15.86675981 13.13211589 12.75 13.125 C11.63109375 13.12757813 10.5121875 13.13015625 9.359375 13.1328125 C6.15392456 13.00608539 3.14755311 12.6008965 0 12 C-0.20772634 22.55115843 -0.20772634 22.55115843 1 33 C2.18142578 32.60167969 2.18142578 32.60167969 3.38671875 32.1953125 C11.21187817 29.65792353 18.84011157 28.01497794 27 27 C27.14695312 28.85238281 27.14695312 28.85238281 27.296875 30.7421875 C28.30293119 42.43846196 30.16650765 53.61101132 33 65 C32.16855469 65.32613281 31.33710938 65.65226563 30.48046875 65.98828125 C29.39378906 66.42527344 28.30710938 66.86226562 27.1875 67.3125 C25.56908203 67.95638672 25.56908203 67.95638672 23.91796875 68.61328125 C21.00435749 69.75623883 21.00435749 69.75623883 19.5 71.74609375 C19.005 72.15988281 18.51 72.57367187 18 73 C15.20703125 72.671875 15.20703125 72.671875 11.8125 71.75 C3.8751366 69.81749669 -3.85695996 69.30668592 -12 69 C-11.67257813 68.28457031 -11.34515625 67.56914063 -11.0078125 66.83203125 C-9.95946123 63.88608292 -9.79220254 61.79240492 -9.875 58.6875 C-9.89304688 57.80449219 -9.91109375 56.92148437 -9.9296875 56.01171875 C-9.95289063 55.34785156 -9.97609375 54.68398438 -10 54 C-1.25781959 55.56110365 6.75983375 58.78481857 15 62 C15.05447822 59.47886908 15.09389852 56.9589415 15.125 54.4375 C15.14175781 53.73302734 15.15851563 53.02855469 15.17578125 52.30273438 C15.22022044 47.48108178 14.52768004 43.57702562 13 39 C7.20140805 39.56810529 2.02313406 40.73679735 -3.5 42.5625 C-4.22703125 42.79646484 -4.9540625 43.03042969 -5.703125 43.27148438 C-7.47080261 43.84132781 -9.23570969 44.41975404 -11 45 C-11.05945801 44.13217896 -11.05945801 44.13217896 -11.12011719 43.24682617 C-12.19376226 27.71369449 -12.19376226 27.71369449 -17 13 C-17.33 12.01 -17.66 11.02 -18 10 C-17.19175781 9.84144531 -16.38351563 9.68289063 -15.55078125 9.51953125 C-7.0821939 7.71415835 -7.0821939 7.71415835 -1 2 C-0.67 1.34 -0.34 0.68 0 0 Z " fill="#F8F8F8" transform="translate(188,475)"/>
<path d="M0 0 C0.33 8.91 0.66 17.82 1 27 C3.31 25.02 5.62 23.04 8 21 C12.18274073 19.83226323 15.90793244 20.54892862 19.875 22.1875 C22.96655656 24.82441589 24.78256862 27.1053722 25.25985718 31.26431274 C25.34742431 34.10416936 25.33685731 36.92864971 25.29296875 39.76953125 C25.28872391 40.80567062 25.28447906 41.84181 25.28010559 42.90934753 C25.26334605 46.21066542 25.2256981 49.51136737 25.1875 52.8125 C25.17244967 55.05402763 25.15876188 57.29556485 25.14648438 59.53710938 C25.11345131 65.02497602 25.06168705 70.51238366 25 76 C21.04 76 17.08 76 13 76 C12.98018066 74.74340576 12.96036133 73.48681152 12.93994141 72.19213867 C12.86393003 67.53470653 12.77520577 62.87758865 12.68261719 58.22045898 C12.64430896 56.20392048 12.60945935 54.18731322 12.578125 52.1706543 C12.53251451 49.27367558 12.47451361 46.37717104 12.4140625 43.48046875 C12.40251129 42.57725388 12.39096008 41.674039 12.37905884 40.74345398 C12.35918915 39.90280899 12.33931946 39.062164 12.31884766 38.19604492 C12.30552399 37.45658127 12.29220032 36.71711761 12.2784729 35.95524597 C12.09785588 33.67895835 12.09785588 33.67895835 10 31 C6.19804378 31.5431366 4.49869657 33.15665563 2 36 C0.36342246 39.27315509 0.7569193 42.90622231 0.68359375 46.5078125 C0.66281265 47.34843231 0.64203156 48.18905212 0.62062073 49.05514526 C0.55514561 51.74501235 0.4962498 54.43497843 0.4375 57.125 C0.39431284 58.94662489 0.35069848 60.76823971 0.30664062 62.58984375 C0.19946632 67.05979394 0.09819315 71.52984386 0 76 C-3.96 76 -7.92 76 -12 76 C-12 51.25 -12 26.5 -12 1 C-10 0 -10 0 0 0 Z " fill="#FDFDFD" transform="translate(638,562)"/>
<path d="M0 0 C-0.3403125 0.42667969 -0.680625 0.85335938 -1.03125 1.29296875 C-8.44318636 10.85357814 -16.81381504 22.01888527 -18.4375 34.3125 C-19.21627012 38.03329057 -21.22775292 39.49821605 -24 42 C-26.7277334 46.0916001 -26.50779509 49.19434498 -26 54 C-25.33468508 56.66510541 -24.5469441 59.23807971 -23.65625 61.8359375 C-23 64 -23 64 -23 67 C-24.47033744 68.24161829 -25.9457748 69.47865818 -27.46484375 70.66015625 C-29.54517476 72.4758141 -30.74629828 74.56224665 -32 77 C-32.66 76.278125 -33.32 75.55625 -34 74.8125 C-37.24136533 71.54311134 -41.04374711 69.3069961 -45 67 C-44.7834375 66.32195312 -44.566875 65.64390625 -44.34375 64.9453125 C-41.34088898 55.5775541 -41.34088898 55.5775541 -42 46 C-44.11688564 43.80519219 -46.41049925 42.04913454 -48.8203125 40.18359375 C-52.10123839 36.89678806 -52.43072814 33.53048438 -53.28125 29.08203125 C-55.70882334 18.67249123 -63.44263997 9.29998864 -71 2 C-69.58376784 1.94552953 -68.16691809 1.90699492 -66.75 1.875 C-65.96109375 1.85179687 -65.1721875 1.82859375 -64.359375 1.8046875 C-61.782078 2.0180399 -60.25695831 2.79435988 -58 4 C-55.66563285 3.70820411 -54.07615959 3.04045978 -52 1.9375 C-50 1 -50 1 -46 1 C-46.26167969 2.25039063 -46.52335937 3.50078125 -46.79296875 4.7890625 C-47.48967263 11.10765936 -45.02628586 15.79770217 -42.3125 21.375 C-41.86455078 22.35855469 -41.41660156 23.34210938 -40.95507812 24.35546875 C-38.06686359 30.55669954 -38.06686359 30.55669954 -33 35 C-29.77687861 29.06717478 -27.06967894 22.97422887 -24.625 16.6875 C-24.35026855 16.00623047 -24.07553711 15.32496094 -23.79248047 14.62304688 C-21.72819295 9.1807127 -22.22258504 6.33224488 -24 1 C-22.44539063 1.01740234 -22.44539063 1.01740234 -20.859375 1.03515625 C-19.48958514 1.04453837 -18.11979332 1.05363812 -16.75 1.0625 C-15.72712891 1.07506836 -15.72712891 1.07506836 -14.68359375 1.08789062 C-9.64732188 1.11233855 -5.01193294 -0.13922036 0 0 Z " fill="#F9F9F9" transform="translate(481,457)"/>
<path d="M0 0 C5.40729747 3.11329248 7.91351743 7.29983384 10 13.0625 C10.89978934 18.78843218 10.6875 24.64130123 10.6875 30.4375 C1.4475 30.4375 -7.7925 30.4375 -17.3125 30.4375 C-16.0137204 38.7470316 -16.0137204 38.7470316 -11.3125 44.4375 C-5.46014561 45.1926425 -2.52902702 44.22773538 2.6875 41.4375 C6.11048577 42.57849526 6.83508766 43.43835621 8.6875 46.4375 C8.6875 47.4275 8.6875 48.4175 8.6875 49.4375 C0.82170411 54.61967141 -6.98992585 55.93947028 -16.3125 54.4375 C-23.60970434 50.26889681 -26.93802951 45.29512274 -29.3125 37.4375 C-31.9570424 26.3785045 -30.50660298 15.15893789 -24.7421875 5.38671875 C-19.08878074 -2.32106807 -8.44292097 -3.75597625 0 0 Z " fill="#F9F9F9" transform="translate(249.3125,584.5625)"/>
<path d="M0 0 C4.18634674 2.58306501 6.38394628 5.15183883 7.9375 9.8125 C8.06709637 12.33771534 8.14657986 14.84056579 8.18359375 17.3671875 C8.21653368 18.88412032 8.2497453 20.40104726 8.28320312 21.91796875 C8.33057358 24.30318143 8.37501434 26.68837051 8.41430664 29.07373047 C8.45415448 31.38013271 8.50566624 33.68605343 8.55859375 35.9921875 C8.5670079 36.70067841 8.57542206 37.40916931 8.58409119 38.13912964 C8.6841235 42.17026543 9.40355933 45.1204775 10.9375 48.8125 C10.0625 52.125 10.0625 52.125 8.9375 54.8125 C6.75 55.125 6.75 55.125 3.9375 54.8125 C1.25 52.3125 1.25 52.3125 -1.0625 49.8125 C-3.28718387 49.58056826 -3.28718387 49.58056826 -5.0625 51.75 C-6.0525 52.7709375 -6.0525 52.7709375 -7.0625 53.8125 C-11.26826723 55.91538362 -16.49444692 55.3432529 -21.0625 54.8125 C-24.52246102 53.22723269 -26.48804386 50.97338012 -28.1875 47.5390625 C-30.19066151 41.29706817 -30.12560483 34.23637902 -27.5 28.25 C-22.99200955 23.74200955 -17.9373896 20.95927612 -11.484375 20.71484375 C-10.60265625 20.72644531 -9.7209375 20.73804688 -8.8125 20.75 C-7.92046875 20.75902344 -7.0284375 20.76804687 -6.109375 20.77734375 C-5.43390625 20.78894531 -4.7584375 20.80054688 -4.0625 20.8125 C-4.14996284 19.37388706 -4.25815348 17.93652492 -4.375 16.5 C-4.43300781 15.69949219 -4.49101562 14.89898438 -4.55078125 14.07421875 C-5.16300779 11.3682709 -5.80872167 10.41212045 -8.0625 8.8125 C-10.10575517 8.41261009 -10.10575517 8.41261009 -12.3125 8.5625 C-13.49392578 8.60117187 -13.49392578 8.60117187 -14.69921875 8.640625 C-17.86136658 8.87059939 -20.9369821 9.28049695 -24.0625 9.8125 C-24.7225 7.1725 -25.3825 4.5325 -26.0625 1.8125 C-17.87982686 -1.516045 -8.54616151 -3.21629734 0 0 Z " fill="#FAFAFA" transform="translate(306.0625,584.1875)"/>
<path d="M0 0 C4.29 0 8.58 0 13 0 C13.02505615 1.29212402 13.0501123 2.58424805 13.07592773 3.91552734 C13.16991624 8.69769656 13.27015766 13.47971762 13.37231445 18.26171875 C13.41569577 20.33362366 13.45736846 22.40556507 13.49731445 24.47753906 C13.55493965 27.45128391 13.61865625 30.42484448 13.68359375 33.3984375 C13.70030624 34.32868744 13.71701874 35.25893738 13.73423767 36.21737671 C13.75418289 37.07811798 13.77412811 37.93885925 13.79467773 38.82568359 C13.81022202 39.58513275 13.8257663 40.34458191 13.84178162 41.12704468 C13.89127127 43.09115721 13.89127127 43.09115721 15 45 C17.33071879 45.41870553 17.33071879 45.41870553 20 45 C23.12400904 42.15657987 24.25128169 39.87991558 24.54589844 35.76049805 C24.58693653 34.09460934 24.60696388 32.42811111 24.609375 30.76171875 C24.62591125 29.88095169 24.64244751 29.00018463 24.65948486 28.09272766 C24.7079107 25.29091379 24.72932353 22.48964246 24.75 19.6875 C24.77816425 17.78317591 24.80809232 15.87887703 24.83984375 13.97460938 C24.91366814 9.31645093 24.96327579 4.6585927 25 0 C29.29 0 33.58 0 38 0 C38 17.82 38 35.64 38 54 C34.37 54 30.74 54 27 54 C26.34 52.68 25.68 51.36 25 50 C24.195625 50.804375 23.39125 51.60875 22.5625 52.4375 C18.71545518 55.62063401 14.94249626 56.42592427 10 56 C5.06081166 53.85657864 3.06054255 51.00051195 0.82263184 46.33496094 C-0.65708609 42.13492465 -0.48940061 38.00097331 -0.390625 33.59375 C-0.38496521 32.6284436 -0.37930542 31.66313721 -0.37347412 30.6685791 C-0.35123963 27.61186283 -0.30106775 24.55635672 -0.25 21.5 C-0.22991828 19.4166837 -0.21167045 17.33334887 -0.1953125 15.25 C-0.15141725 10.1662066 -0.08248003 5.08330785 0 0 Z " fill="#F6F6F6" transform="translate(757,584)"/>
<path d="M0 0 C3.86079232 2.03199596 6.37712525 4.97067775 8 9 C8.24050903 11.22735596 8.24050903 11.22735596 8.22705078 13.67675781 C8.22689972 14.59741028 8.22674866 15.51806274 8.22659302 16.46661377 C8.21627045 17.45216248 8.20594788 18.43771118 8.1953125 19.453125 C8.1924826 20.46848328 8.18965271 21.48384155 8.18673706 22.52996826 C8.17555001 25.77009916 8.15044791 29.00995276 8.125 32.25 C8.1149683 34.44791267 8.10584278 36.64582968 8.09765625 38.84375 C8.07561546 44.22927337 8.04109552 49.61458968 8 55 C3.71 55 -0.58 55 -5 55 C-5.33 40.48 -5.66 25.96 -6 11 C-7.32 10.67 -8.64 10.34 -10 10 C-12.64698845 11.78517826 -14.56010623 13.12021246 -16 16 C-16.15720097 18.9148537 -16.25855654 21.80939636 -16.31640625 24.7265625 C-16.33718735 25.58937836 -16.35796844 26.45219421 -16.37937927 27.34115601 C-16.44486034 30.10235493 -16.50375298 32.86365038 -16.5625 35.625 C-16.6056866 37.49480172 -16.64930093 39.36459362 -16.69335938 41.234375 C-16.80054024 45.82281728 -16.90181175 50.41135683 -17 55 C-21.29 55 -25.58 55 -30 55 C-30 37.18 -30 19.36 -30 1 C-26.37 1 -22.74 1 -19 1 C-18.34 2.65 -17.68 4.3 -17 6 C-16.05125 5.195625 -15.1025 4.39125 -14.125 3.5625 C-9.62967708 -0.24875204 -5.84945314 -0.88479123 0 0 Z " fill="#F6F6F6" transform="translate(847,583)"/>
<path d="M0 0 C3.38347018 1.32396659 4.62436345 2.42958684 6.61450195 5.45166016 C8.49709436 10.27308711 8.37438201 14.5207521 8.29296875 19.6484375 C8.28872391 20.66096588 8.28447906 21.67349426 8.28010559 22.71670532 C8.26337302 25.93641248 8.22573026 29.15548344 8.1875 32.375 C8.17244618 34.56379302 8.158759 36.75259589 8.14648438 38.94140625 C8.11348715 44.29451429 8.06174174 49.64714944 8 55 C4.04 55 0.08 55 -4 55 C-4.01981934 53.70787598 -4.03963867 52.41575195 -4.06005859 51.08447266 C-4.13598368 46.30220655 -4.22472078 41.52024995 -4.31738281 36.73828125 C-4.35572685 34.66640319 -4.39057005 32.59445731 -4.421875 30.52246094 C-4.46740809 27.54858113 -4.52542118 24.57517038 -4.5859375 21.6015625 C-4.59748871 20.67131256 -4.60903992 19.74106262 -4.62094116 18.78262329 C-4.64081085 17.92188202 -4.66068054 17.06114075 -4.68115234 16.17431641 C-4.69447601 15.41486725 -4.70779968 14.65541809 -4.7215271 13.87295532 C-4.84617052 11.7568774 -4.84617052 11.7568774 -7 10 C-9.47326954 9.85908518 -9.47326954 9.85908518 -12 11 C-16.1768404 15.92414373 -16.59990831 19.73259374 -16.609375 25.8984375 C-16.62591125 26.73339752 -16.64244751 27.56835754 -16.65948486 28.42861938 C-16.70780345 31.07748895 -16.72929925 33.72578512 -16.75 36.375 C-16.77817328 38.17841401 -16.80810261 39.9818015 -16.83984375 41.78515625 C-16.91355772 46.19005692 -16.96323057 50.5946423 -17 55 C-20.96 55 -24.92 55 -29 55 C-29 37.18 -29 19.36 -29 1 C-25.37 1 -21.74 1 -18 1 C-17.67 2.98 -17.34 4.96 -17 7 C-16.236875 6.21625 -15.47375 5.4325 -14.6875 4.625 C-9.78963555 -0.15896063 -6.58199887 -0.73004565 0 0 Z " fill="#FDFDFD" transform="translate(411,583)"/>
<path d="M0 0 C4.31620963 0.27550274 8.22263029 1.31776851 12.375 2.5 C17.27385927 3.88902649 21.92973739 4.5844047 27 5 C26.505 2.525 26.505 2.525 26 0 C26.78761719 0.34933594 27.57523438 0.69867188 28.38671875 1.05859375 C36.3595202 4.38924335 43.36975089 5.84462727 52 6 C48.60606273 8.89319243 45.40537707 10.97951646 41.3125 12.75 C40.35988281 13.17796875 39.40726563 13.6059375 38.42578125 14.046875 C35.25855866 14.9280635 33.02986561 15.09994833 29.78588867 15.05957031 C28.44006966 15.04666962 28.44006966 15.04666962 27.06706238 15.0335083 C26.38493179 15.02245056 25.70280121 15.01139282 25 15 C24.78190256 20.97686293 24.58525849 26.95391636 24.40795898 32.93212891 C24.34475944 34.96324252 24.27582984 36.99418662 24.20092773 39.02490234 C24.09391173 41.95383706 24.00791855 44.88277453 23.92578125 47.8125 C23.8697448 49.16142334 23.8697448 49.16142334 23.81257629 50.53759766 C23.64381839 57.70794093 24.95419722 62.93129583 29 69 C28.46890625 69.31453125 27.9378125 69.6290625 27.390625 69.953125 C23.48458848 72.31955588 20.06395074 74.55305542 17 78 C16.484375 77.0925 15.96875 76.185 15.4375 75.25 C12.96443733 71.48237384 9.98317039 69.9915852 6 68 C6.20555008 67.332603 6.41110016 66.66520599 6.62287903 65.97758484 C8.57684548 59.29895338 9.57436478 53.01684847 9.94921875 46.08203125 C10.01156204 45.09877365 10.07390533 44.11551605 10.13813782 43.10246277 C10.33200374 40.00635663 10.51003392 36.90958487 10.6875 33.8125 C10.81730646 31.69459666 10.94815666 29.57675702 11.08007812 27.45898438 C11.39877071 22.30664606 11.70327961 17.15364844 12 12 C9.62429039 11.51126641 7.24793866 11.02612383 4.87109375 10.54296875 C3.87257385 10.33698059 3.87257385 10.33698059 2.85388184 10.12683105 C-2.41449394 9.06024717 -7.64075791 8.36568946 -13 8 C-10.02999718 6.01999812 -7.05180034 4.53121208 -3.83984375 3 C-1.83260604 2.02166889 -1.83260604 2.02166889 0 0 Z " fill="#F8F8F8" transform="translate(617,456)"/>
<path d="M0 0 C1.1240625 0.32742188 2.248125 0.65484375 3.40625 0.9921875 C8.14730541 2.17745135 12.63763058 2.22794919 17.5 2.125 C18.32242188 2.11597656 19.14484375 2.10695313 19.9921875 2.09765625 C21.99492083 2.07436865 23.99750154 2.03850959 26 2 C26 2.66 26 3.32 26 4 C18.51542281 10.24969725 11.84844532 14.19860447 2 14 C2.61905861 19.97964761 3.25853704 25.95663714 3.91650391 31.93212891 C4.13721301 33.96245882 4.35246589 35.99338995 4.56201172 38.02490234 C4.86531535 40.95587919 5.18859882 43.88408655 5.515625 46.8125 C5.60434875 47.71178223 5.69307251 48.61106445 5.78448486 49.53759766 C6.62213523 56.7581269 8.99481737 61.99222605 13 68 C11.6078125 69.0828125 11.6078125 69.0828125 10.1875 70.1875 C7.41165004 72.48430257 5.6617322 74.76885405 4 78 C3.39671875 77.59007812 2.7934375 77.18015625 2.171875 76.7578125 C1.37265625 76.21898437 0.5734375 75.68015625 -0.25 75.125 C-1.03890625 74.59132813 -1.8278125 74.05765625 -2.640625 73.5078125 C-4.71555692 72.18177985 -6.77614972 71.05071825 -9 70 C-8.835 69.030625 -8.67 68.06125 -8.5 67.0625 C-7.43993936 59.55242772 -8.06101125 52.09408357 -8.875 44.58984375 C-9.00817627 43.31047691 -9.00817627 43.31047691 -9.14404297 42.00526428 C-9.42502672 39.31553314 -9.71239798 36.62653067 -10 33.9375 C-10.19313342 32.099654 -10.38584565 30.26176368 -10.578125 28.42382812 C-11.04644043 23.94858975 -11.52341197 19.47439561 -12 15 C-19.59 14.34 -27.18 13.68 -35 13 C-33.35 11.68 -31.7 10.36 -30 9 C-29.278125 8.071875 -28.55625 7.14375 -27.8125 6.1875 C-24.64962204 3.72748381 -24.30939748 3.74668853 -20.5625 4.1875 C-19.70785156 4.32285156 -18.85320312 4.45820313 -17.97265625 4.59765625 C-14.45866668 5.0732685 -11.04511719 5.12136398 -7.5 5.125 C-6.3140625 5.12757813 -5.128125 5.13015625 -3.90625 5.1328125 C-1.06140086 5.19983193 -1.06140086 5.19983193 1 4 C0.505 2.02 0.505 2.02 0 0 Z " fill="#F8F8F8" transform="translate(255,466)"/>
<path d="M0 0 C-0.99 2.64 -1.98 5.28 -3 8 C-4.17369141 7.98259766 -4.17369141 7.98259766 -5.37109375 7.96484375 C-6.38300781 7.95582031 -7.39492188 7.94679688 -8.4375 7.9375 C-9.95150391 7.92009766 -9.95150391 7.92009766 -11.49609375 7.90234375 C-13.94021067 7.71387324 -13.94021067 7.71387324 -15 9 C-15.23363881 10.84891946 -15.41303635 12.70488031 -15.5625 14.5625 C-15.64628906 15.57441406 -15.73007812 16.58632813 -15.81640625 17.62890625 C-15.90728516 18.80259766 -15.90728516 18.80259766 -16 20 C-12.7 20 -9.4 20 -6 20 C-6.33 22.97 -6.66 25.94 -7 29 C-9.97 29 -12.94 29 -16 29 C-16 43.85 -16 58.7 -16 74 C-20.29 74 -24.58 74 -29 74 C-29 59.15 -29 44.3 -29 29 C-30.98 29 -32.96 29 -35 29 C-35 26.03 -35 23.06 -35 20 C-33.02 20 -31.04 20 -29 20 C-29.03480469 19.27554688 -29.06960938 18.55109375 -29.10546875 17.8046875 C-29.3034182 10.73506433 -28.73115 6.3903931 -24.1875 0.75 C-16.62433439 -5.30053249 -8.26672016 -3.14922673 0 0 Z " fill="#F8F8F8" transform="translate(747,564)"/>
<path d="M0 0 C3 1 3 1 4.6484375 4.10546875 C5.23644841 5.4607951 5.81116557 6.82193891 6.375 8.1875 C6.67809082 8.90204346 6.98118164 9.61658691 7.29345703 10.3527832 C18.56148083 37.26225111 18.56148083 37.26225111 13.984375 49.9140625 C12.26143981 53.5650442 9.88525536 56.15488553 6.1875 57.8125 C-2.8101029 58.58372311 -2.8101029 58.58372311 -7.3125 56.375 C-11.7163769 52.48320181 -13.61356877 47.76644085 -14.20532227 41.9987793 C-14.34822204 35.78658842 -12.9890363 30.64326733 -10.9375 24.8125 C-10.62675537 23.90282471 -10.31601074 22.99314941 -9.99584961 22.0559082 C-7.28733339 14.34925134 -3.95146035 7.14625807 0 0 Z " fill="#FBFBFB" transform="translate(511,368)"/>
<path d="M0 0 C1.8253125 0.0309375 1.8253125 0.0309375 3.6875 0.0625 C3.6875 4.3525 3.6875 8.6425 3.6875 13.0625 C6.9875 13.0625 10.2875 13.0625 13.6875 13.0625 C13.3575 16.0325 13.0275 19.0025 12.6875 22.0625 C9.7175 22.0625 6.7475 22.0625 3.6875 22.0625 C4.0175 33.6125 4.3475 45.1625 4.6875 57.0625 C7.3275 57.0625 9.9675 57.0625 12.6875 57.0625 C15.1875 60.0625 15.1875 60.0625 16.6875 63.0625 C16.0625 64.9375 16.0625 64.9375 14.6875 67.0625 C9.24220584 69.59519496 4.16540383 69.93705429 -1.5 67.9375 C-5.20634133 65.46660578 -7.42264453 62.58961705 -8.91186523 58.36035156 C-9.49927458 54.99124935 -9.43448218 51.64228404 -9.41015625 48.234375 C-9.4087413 47.48536926 -9.40732635 46.73636353 -9.40586853 45.96466064 C-9.40028659 43.58056588 -9.38773745 41.19656622 -9.375 38.8125 C-9.36998266 37.19270969 -9.36542016 35.57291791 -9.36132812 33.953125 C-9.35032308 29.98954688 -9.33307091 26.02603955 -9.3125 22.0625 C-11.2925 22.0625 -13.2725 22.0625 -15.3125 22.0625 C-15.3125 19.0925 -15.3125 16.1225 -15.3125 13.0625 C-13.3325 13.0625 -11.3525 13.0625 -9.3125 13.0625 C-9.3125 9.1025 -9.3125 5.1425 -9.3125 1.0625 C-5.83919872 0.36783974 -3.39947137 -0.05761816 0 0 Z " fill="#F6F6F6" transform="translate(592.3125,570.9375)"/>
<path d="M0 0 C3.96 0 7.92 0 12 0 C12 19.8 12 39.6 12 60 C19.59 60 27.18 60 35 60 C34.67 63.3 34.34 66.6 34 70 C22.78 70 11.56 70 0 70 C0 46.9 0 23.8 0 0 Z " fill="#FEFEFE" transform="translate(169,568)"/>
<path d="M0 0 C1.00152915 3.4615959 1.99516565 6.92499098 2.96875 10.39453125 C3.53712257 12.3816823 4.12272175 14.36509721 4.78125 16.32421875 C6.36591086 21.29713474 5.66973638 25.10970398 4.5546875 30.05859375 C3.96497639 33.18572377 3.88338108 36.13466495 3.8125 39.3125 C3.50010076 43.52714938 2.98055002 45.8104482 -0.125 48.75 C-3.76258678 51.2918383 -6.57060961 51.57418024 -11 51 C-12.66840031 50.67545527 -14.33544143 50.34370578 -16 50 C-18.9344818 33.93157539 -19.12844418 18.29067393 -19 2 C-16.77376199 1.46678738 -14.54384996 0.94889881 -12.3125 0.4375 C-11.07113281 0.14746094 -9.82976562 -0.14257812 -8.55078125 -0.44140625 C-5.23888546 -0.96241956 -3.18139847 -0.91852996 0 0 Z " fill="#030303" transform="translate(391,470)"/>
<path d="M0 0 C0.77601563 0.16371094 1.55203125 0.32742188 2.3515625 0.49609375 C7.0492078 1.144912 11.64013661 1.10640387 16.375 1.0625 C17.76525391 1.05573242 17.76525391 1.05573242 19.18359375 1.04882812 C21.45579709 1.03711574 23.72786388 1.02071372 26 1 C25.01 1.495 25.01 1.495 24 2 C23.27095914 3.64034193 22.61344757 5.31301918 22 7 C21.65324219 7.70898438 21.30648437 8.41796875 20.94921875 9.1484375 C19.69875419 12.90497712 19.74755872 16.4648515 19.8125 20.375 C19.8134668 21.46941406 19.8134668 21.46941406 19.81445312 22.5859375 C19.84264771 26.09459726 20.05346943 29.36036928 20.5703125 32.84375 C21.00981235 36.07207614 20.49005053 37.82477784 19.4921875 40.859375 C17.16503311 50.98064966 19.49589211 59.99178421 24 69 C11.13 68.505 11.13 68.505 -2 68 C-0.35 65.69 1.3 63.38 3 61 C6.02836719 54.79905765 6.08678591 46.83092032 4.21875 40.24609375 C3.9196875 39.40175781 3.620625 38.55742187 3.3125 37.6875 C1.85860775 33.38696826 1.85860775 33.38696826 3.1875 29.75 C3.4865625 29.21761719 3.785625 28.68523437 4.09375 28.13671875 C6.21186779 23.14270828 6.36905399 17.35190674 7 12 C6.37609375 11.72929687 5.7521875 11.45859375 5.109375 11.1796875 C2.0095654 9.44609028 1.29359449 7.23398622 0 4 C0 2.68 0 1.36 0 0 Z " fill="#FAFAFA" transform="translate(574,457)"/>
<path d="M0 0 C1.8871875 0.061875 1.8871875 0.061875 3.8125 0.125 C3.25937265 4.15492782 2.6566938 8.14522924 1.8125 12.125 C0.20375 12.2178125 0.20375 12.2178125 -1.4375 12.3125 C-5.2824024 12.79134189 -5.2824024 12.79134189 -7.5625 15.5 C-10.29353509 19.91167207 -10.38826652 23.81662175 -10.50390625 28.85546875 C-10.52468735 29.60588943 -10.54546844 30.35631012 -10.56687927 31.12947083 C-10.63219926 33.52372184 -10.69117792 35.91808139 -10.75 38.3125 C-10.79320193 39.93686013 -10.83681676 41.56120933 -10.88085938 43.18554688 C-10.98786263 47.16525371 -11.08917937 51.14506958 -11.1875 55.125 C-15.4775 55.125 -19.7675 55.125 -24.1875 55.125 C-24.1875 37.305 -24.1875 19.485 -24.1875 1.125 C-20.5575 1.125 -16.9275 1.125 -13.1875 1.125 C-12.8575 3.105 -12.5275 5.085 -12.1875 7.125 C-11.424375 6.34125 -10.66125 5.5575 -9.875 4.75 C-6.53812273 1.49072453 -4.64562136 -0.15231545 0 0 Z " fill="#F8F8F8" transform="translate(361.1875,582.875)"/>
<path d="M0 0 C4.29 0 8.58 0 13 0 C13 17.82 13 35.64 13 54 C8.71 54 4.42 54 0 54 C0 36.18 0 18.36 0 0 Z " fill="#F8F8F8" transform="translate(547,584)"/>
<path d="M0 0 C2.51488835 2.34722913 3.51832333 4.62826328 4 8 C4 10.31 4 12.62 4 15 C-1.28 15 -6.56 15 -12 15 C-12 8.24951974 -11.85471816 6.48984261 -9 1 C-5.9167365 -0.54163175 -3.39121901 -0.29747535 0 0 Z " fill="#090909" transform="translate(244,592)"/>
<path d="M0 0 C0.61548983 10.71978116 0.61548983 10.71978116 -1.5625 15.25 C-4.82284776 17.5907625 -7.0799915 17.37692389 -11 17 C-13.48252122 13.27621817 -13.65876233 9.32045427 -13 5 C-10.08643254 -1.08048862 -6.0135804 -0.57822888 0 0 Z " fill="#070707" transform="translate(302,613)"/>
<path d="M0 0 C2.09765625 0.3828125 2.09765625 0.3828125 4.16015625 2.0078125 C5.37418198 5.08334436 5.57607796 7.10220649 5.09765625 10.3828125 C3.53515625 12.7578125 3.53515625 12.7578125 1.09765625 14.3828125 C-2.87721992 14.95065195 -4.96723596 15.00621769 -8.33984375 12.7578125 C-10.36166688 9.68464135 -10.42989892 8.00033369 -9.90234375 4.3828125 C-8.01103305 -0.40850795 -4.62823759 -0.22576769 0 0 Z " fill="#F8F8F8" transform="translate(555.90234375,557.6171875)"/>
<path d="M0 0 C1.32 0.33 2.64 0.66 4 1 C3.01 2.98 2.02 4.96 1 7 C0.01 7 -0.98 7 -2 7 C-1.125 2.25 -1.125 2.25 0 0 Z " fill="#0F0F0F" transform="translate(481,386)"/>
</svg>
